<svg xmlns="http://www.w3.org/2000/svg" xmlns:xlink="http://www.w3.org/1999/xlink" width="500" zoomAndPan="magnify" viewBox="0 0 375 374.999991" height="500" preserveAspectRatio="xMidYMid meet" version="1.0"><defs><clipPath id="8a75330d68"><path d="M 98.359375 135.464844 L 276 135.464844 L 276 239.714844 L 98.359375 239.714844 Z M 98.359375 135.464844 " clip-rule="nonzero"/></clipPath></defs><g clip-path="url(#8a75330d68)"><path fill="#5b483d" d="M 274.546875 170.738281 C 272.460938 168.339844 269.867188 171.210938 268.023438 172.664062 C 263.582031 176.085938 258.902344 179.152344 254.34375 182.457031 C 251.515625 184.5 248.722656 186.585938 245.933594 188.707031 C 244.480469 189.808594 242.984375 190.753906 241.453125 191.738281 C 240.429688 192.367188 238.820312 192.878906 238.742188 194.136719 C 238.664062 195.433594 240.234375 197.515625 241.019531 198.421875 C 242.160156 199.679688 242.277344 199.40625 241.21875 200.703125 C 239.171875 203.21875 236.578125 205.265625 234.300781 207.585938 C 231.902344 210.0625 229.78125 212.777344 227.144531 215.015625 C 225.808594 216.15625 224.394531 217.179688 222.980469 218.164062 C 221.722656 218.988281 219.992188 219.65625 218.933594 220.71875 C 218.539062 221.113281 217.910156 221.9375 217.949219 222.527344 C 218.027344 223.511719 218.578125 223.234375 219.207031 223.667969 C 219.835938 224.140625 220.347656 225.164062 220.976562 225.515625 C 221.40625 225.792969 221.878906 225.59375 222.273438 225.792969 C 222.824219 226.105469 222.902344 226.972656 223.332031 227.40625 C 224.316406 228.386719 225.300781 227.796875 225.886719 226.65625 C 227.304688 224.0625 228.089844 221.035156 229.503906 218.398438 C 230.957031 215.726562 233.472656 213.601562 235.480469 211.359375 C 238.386719 208.097656 241.375 204.949219 244.28125 201.726562 C 245.894531 202.746094 247.308594 204.125 248.921875 205.066406 C 250.21875 205.816406 251.789062 206.246094 252.929688 205.1875 C 254.265625 203.925781 254.738281 202.15625 255.679688 200.625 C 256.703125 198.972656 257.800781 197.320312 258.902344 195.667969 C 263.226562 189.140625 268.925781 183.558594 273.445312 177.148438 C 275.097656 174.828125 276.667969 173.175781 274.546875 170.738281 Z M 227.894531 220.011719 C 227.5 219.816406 228.875 217.613281 228.5625 217.414062 C 226.988281 219.34375 226.085938 222.410156 225.023438 224.652344 C 226.085938 223.355469 226.949219 221.859375 227.695312 220.363281 C 227.617188 221.664062 226.636719 222.921875 226.164062 224.140625 C 225.929688 224.769531 225.457031 227.089844 224.632812 227.207031 C 223.726562 227.363281 223.253906 225.398438 222.585938 225.085938 C 222.3125 224.925781 221.839844 225.042969 221.527344 224.886719 C 221.367188 224.808594 220.976562 224.296875 220.859375 224.140625 C 220.464844 223.707031 220.191406 223.316406 219.71875 223 C 219.402344 222.804688 218.972656 222.960938 218.773438 222.566406 C 218.382812 221.742188 220.03125 220.640625 220.582031 220.285156 C 222.824219 218.871094 224.945312 217.296875 227.105469 215.804688 C 227.734375 216.433594 228.402344 217.023438 229.386719 217.101562 C 228.914062 218.085938 228.441406 219.066406 227.894531 220.011719 Z M 243.0625 202.117188 C 241.886719 203.730469 240.234375 205.148438 238.859375 206.640625 C 236.148438 209.589844 233.511719 212.65625 230.722656 215.488281 C 230.410156 215.804688 229.78125 216.433594 229.78125 216.433594 L 227.695312 215.410156 C 227.695312 215.410156 228.324219 214.859375 228.441406 214.703125 C 229.660156 213.011719 231.667969 211.28125 232.964844 209.90625 C 236.105469 206.601562 239.449219 203.417969 242.59375 200.113281 C 243.691406 200.78125 243.691406 201.253906 243.0625 202.117188 Z M 270.027344 180.726562 C 267.628906 183.832031 265.230469 186.976562 262.675781 189.929688 C 260.277344 192.71875 258.273438 195.550781 256.269531 198.617188 C 255.289062 200.152344 254.460938 201.6875 253.558594 203.257812 C 252.773438 204.597656 252.261719 205.460938 250.609375 205.027344 C 249 204.597656 247.78125 203.21875 246.40625 202.316406 C 245.460938 201.6875 244.714844 201.058594 243.890625 200.269531 C 243.101562 199.523438 242.277344 198.816406 241.570312 198.027344 C 240.390625 196.730469 240 195.355469 239.332031 193.78125 C 246.011719 189.339844 252.261719 184.382812 258.902344 179.898438 C 262.125 177.738281 265.46875 175.691406 268.375 173.136719 C 270.300781 171.445312 273.011719 168.613281 274.625 172.230469 C 275.765625 174.789062 271.480469 178.878906 270.027344 180.726562 Z M 272.777344 174.160156 C 269.75 178.167969 265.9375 181.550781 262.714844 185.445312 C 259.6875 189.101562 256.9375 193.074219 254.03125 196.847656 C 253.910156 195.511719 256.308594 192.917969 257.015625 191.894531 C 258.472656 189.808594 260.160156 187.804688 261.773438 185.796875 C 263.894531 183.164062 266.292969 180.804688 268.570312 178.289062 C 269.160156 177.660156 271.714844 173.960938 272.777344 174.160156 Z M 255.40625 185.523438 C 253.164062 187.332031 250.964844 189.21875 248.644531 190.988281 C 247.820312 191.617188 245.027344 194.410156 243.773438 194.175781 C 243.652344 194.019531 247.074219 191.460938 247.386719 191.226562 C 249.824219 189.417969 252.496094 186.507812 255.40625 185.523438 Z M 252.023438 199.878906 C 252.417969 200.035156 249.707031 203.101562 249.511719 203.21875 C 249.351562 203.101562 250.058594 202 250.179688 201.882812 C 250.296875 201.6875 251.75 199.757812 252.023438 199.878906 Z M 224.671875 219.144531 C 224.789062 219.027344 227.304688 216.746094 227.539062 216.867188 C 227.421875 216.785156 224.277344 220.089844 223.921875 220.363281 C 223.84375 220.40625 221.800781 222.332031 221.761719 222.292969 C 221.054688 221.976562 224.550781 219.265625 224.671875 219.144531 Z M 227.539062 218.085938 C 227.460938 218.085938 225.886719 220.796875 225.652344 221.074219 C 224.945312 221.9375 224.121094 222.644531 223.414062 223.472656 C 223.214844 222.683594 226.636719 218.003906 227.539062 218.085938 Z M 207.652344 227.914062 C 206.746094 226.933594 205.804688 226.027344 204.820312 225.125 C 204.390625 224.730469 203.917969 224.375 203.484375 224.0625 C 202.894531 223.117188 202.308594 222.09375 202.070312 220.875 C 201.597656 218.359375 200.105469 216.039062 199.164062 213.601562 C 198.335938 211.4375 197.15625 209.433594 195.859375 207.546875 C 195.191406 206.523438 194.445312 205.539062 193.777344 204.515625 C 191.8125 201.449219 189.886719 198.382812 187.960938 195.316406 C 187.566406 194.6875 187.097656 194.058594 186.664062 193.429688 C 187.136719 193.46875 187.488281 193.585938 187.765625 193.820312 C 189.769531 195.316406 191.8125 196.808594 193.777344 198.382812 C 195.3125 199.5625 196.960938 200.347656 198.886719 200.625 C 199.515625 200.703125 200.066406 200.585938 200.460938 200.152344 C 200.851562 200.386719 201.207031 200.625 201.597656 200.820312 C 202.1875 201.136719 202.894531 201.371094 203.367188 201.097656 C 203.800781 200.820312 203.800781 200.113281 203.523438 199.523438 C 203.25 198.894531 202.777344 198.382812 202.265625 197.871094 C 201.597656 197.164062 200.929688 196.535156 200.222656 195.867188 C 199.949219 195.433594 199.632812 195.039062 199.164062 194.6875 C 198.496094 194.136719 197.707031 193.664062 197.039062 193.113281 C 196.097656 192.289062 195.230469 191.34375 194.25 190.558594 C 192.71875 189.339844 191.105469 188.199219 189.535156 187.058594 C 186.742188 185.050781 183.992188 183.046875 181.199219 181.039062 C 178.726562 179.230469 176.25 177.421875 173.773438 175.652344 C 171.0625 173.6875 168.425781 171.523438 165.519531 169.871094 C 161.472656 167.589844 157.1875 165.78125 153.058594 163.660156 C 151.171875 162.714844 149.40625 161.574219 147.558594 160.511719 C 144.648438 158.859375 141.742188 157.171875 138.832031 155.558594 C 137.457031 154.773438 129.832031 150.640625 128.378906 150.050781 C 125.625 148.910156 122.835938 147.851562 120.046875 146.710938 C 117.058594 145.53125 114.070312 144.546875 110.769531 144.664062 C 108.882812 144.742188 106.957031 144.390625 105.070312 144.273438 C 103.851562 144.191406 102.632812 144.152344 101.414062 144.113281 C 100.589844 144.074219 99.804688 144.113281 98.980469 144.113281 C 98.941406 144.191406 98.941406 144.3125 98.898438 144.390625 C 99.214844 144.507812 99.527344 144.703125 99.882812 144.742188 C 100.316406 144.78125 100.746094 144.664062 101.140625 144.742188 C 103.460938 144.980469 105.738281 145.371094 108.058594 145.53125 C 111.203125 145.765625 114.386719 145.648438 117.414062 146.828125 C 118.867188 147.417969 120.320312 147.96875 121.773438 148.519531 C 123.308594 149.148438 124.878906 149.777344 126.414062 150.445312 C 127.984375 151.113281 129.515625 151.78125 131.011719 152.570312 C 132.621094 153.394531 134.117188 154.457031 135.726562 155.28125 C 137.339844 156.109375 139.109375 156.660156 140.71875 157.5625 C 143.3125 158.980469 145.789062 160.589844 148.34375 162.085938 C 150.503906 163.34375 152.667969 164.640625 154.867188 165.78125 C 156.085938 166.410156 157.421875 166.726562 158.640625 167.316406 C 160.882812 168.417969 163.082031 169.558594 165.285156 170.777344 C 166.34375 171.367188 167.40625 171.996094 168.386719 172.703125 C 169.765625 173.6875 171.0625 174.75 172.398438 175.769531 C 175.382812 177.972656 178.371094 180.175781 181.359375 182.339844 C 184.542969 184.617188 187.765625 186.820312 190.949219 189.140625 C 192.285156 190.125 193.464844 191.226562 194.761719 192.289062 C 195.113281 192.5625 195.429688 192.835938 195.78125 193.113281 C 194.800781 192.957031 193.972656 193.664062 194.523438 194.882812 C 194.800781 195.433594 195.273438 195.90625 195.742188 196.335938 C 196.960938 197.476562 198.21875 198.617188 199.554688 199.5625 C 199.359375 199.757812 199.082031 199.757812 198.652344 199.71875 C 196.84375 199.40625 195.273438 198.5 193.972656 197.320312 C 191.851562 195.394531 189.453125 193.9375 187.097656 192.40625 C 185.917969 191.65625 184.464844 191.382812 183.597656 190.164062 C 183.285156 189.769531 182.929688 189.378906 182.539062 189.0625 C 180.691406 187.527344 178.804688 186.035156 176.957031 184.5 C 175.34375 183.164062 173.773438 181.707031 172.199219 180.371094 C 172.082031 180.253906 171.808594 180.253906 171.609375 180.214844 C 171.609375 180.449219 171.570312 180.6875 171.609375 180.921875 C 171.609375 181.039062 171.769531 181.160156 171.886719 181.277344 C 173.617188 182.808594 175.34375 184.34375 177.074219 185.839844 C 178.566406 187.136719 180.0625 188.355469 181.554688 189.652344 C 183.753906 191.578125 185.722656 193.703125 187.292969 196.179688 C 188.746094 198.421875 190.164062 200.703125 191.617188 202.945312 C 192.558594 204.398438 193.464844 205.894531 194.40625 207.347656 C 195.390625 208.921875 196.570312 210.417969 197.355469 212.027344 C 198.613281 214.585938 199.671875 217.21875 200.773438 219.855469 C 200.929688 220.246094 201.011719 220.71875 201.128906 221.113281 C 200.300781 220.484375 199.671875 219.855469 199.042969 219.144531 C 197.707031 217.613281 196.410156 216.039062 195.113281 214.503906 C 192.71875 211.753906 190.398438 209 187.921875 206.328125 C 186.351562 204.636719 184.582031 203.101562 182.890625 201.488281 C 182.066406 200.703125 181.082031 199.957031 180.375 199.089844 C 179.667969 198.226562 179.195312 197.164062 178.566406 196.179688 C 176.878906 193.585938 175.226562 190.988281 173.417969 188.472656 C 172.042969 186.546875 170.472656 184.777344 168.976562 182.929688 C 168.347656 182.140625 167.796875 181.316406 167.128906 180.570312 C 166.972656 180.371094 166.621094 180.332031 166.34375 180.253906 C 166.382812 180.488281 166.304688 180.84375 166.421875 181 C 167.484375 182.378906 168.546875 183.753906 169.605469 185.089844 C 170.550781 186.269531 171.53125 187.371094 172.398438 188.550781 C 173.496094 190.085938 174.558594 191.617188 175.582031 193.191406 C 176.40625 194.449219 177.152344 195.746094 177.9375 197.007812 C 177.859375 197.085938 177.742188 197.203125 177.664062 197.28125 C 171.414062 191.855469 164.851562 186.820312 158.875 181.078125 C 158.796875 181.117188 158.71875 181.199219 158.640625 181.238281 C 158.757812 181.550781 158.875 181.90625 159.035156 182.179688 C 160.253906 184.148438 162.257812 185.289062 163.90625 186.820312 C 165.480469 188.238281 167.167969 189.496094 168.78125 190.871094 C 172.398438 193.898438 176.011719 196.96875 179.628906 199.996094 C 180.730469 200.898438 181.949219 201.726562 182.96875 202.707031 C 184.304688 203.964844 185.5625 205.34375 186.820312 206.679688 C 188.316406 208.253906 189.769531 209.867188 191.222656 211.476562 C 193.582031 214.191406 195.859375 216.984375 198.296875 219.65625 C 199.320312 220.757812 200.421875 221.859375 201.363281 223 C 201.089844 222.921875 200.8125 222.804688 200.539062 222.765625 C 199.398438 222.527344 198.375 223.394531 199.003906 224.769531 C 199.28125 225.398438 199.832031 225.910156 200.339844 226.382812 C 201.480469 227.40625 202.621094 228.464844 203.800781 229.410156 C 203.484375 229.882812 202.894531 230.039062 202.1875 229.765625 C 200.773438 229.214844 199.320312 228.625 198.0625 227.796875 C 195.585938 226.105469 193.148438 224.335938 190.910156 222.371094 C 188.628906 220.363281 186.585938 218.164062 184.503906 215.960938 C 182.417969 213.757812 180.847656 211.125 178.566406 209.039062 C 176.328125 206.996094 173.851562 205.34375 171.257812 203.847656 C 168.46875 202.238281 165.636719 200.703125 162.847656 199.050781 C 160.761719 197.832031 158.835938 196.417969 156.753906 195.238281 C 155.183594 194.332031 153.453125 193.625 151.800781 192.878906 C 149.875 192.011719 147.949219 191.226562 146.023438 190.28125 C 144.019531 189.296875 141.976562 188.394531 139.695312 188.394531 C 138.480469 188.394531 137.339844 189.101562 137.222656 190.28125 C 137.023438 192.40625 136.984375 194.527344 138.203125 196.378906 C 138.792969 197.320312 139.5 198.1875 140.207031 199.050781 C 141.347656 200.425781 142.410156 201.960938 143.746094 203.140625 C 145.90625 205.066406 148.226562 206.917969 150.625 208.605469 C 152.550781 209.945312 154.554688 211.085938 156.320312 212.65625 C 157.738281 213.914062 158.875 215.214844 159.386719 216.984375 C 159.113281 216.746094 158.835938 216.472656 158.5625 216.234375 C 157.421875 215.292969 156.28125 214.664062 154.867188 214.625 C 153.808594 214.585938 152.746094 215.6875 153.21875 216.984375 C 153.257812 217.101562 153.335938 217.21875 153.375 217.335938 C 152.707031 216.945312 152.039062 216.511719 151.410156 216.078125 C 150.664062 215.527344 149.835938 215.015625 149.011719 214.585938 C 146.96875 213.484375 144.925781 212.460938 142.878906 211.359375 C 140.992188 210.335938 139.105469 209.277344 137.222656 208.175781 C 134.980469 206.875 132.660156 205.65625 130.5 204.242188 C 127.828125 202.511719 126.058594 200.035156 125.035156 197.007812 C 123.976562 193.898438 122.5625 190.988281 121.027344 188.117188 C 120.007812 186.230469 118.984375 184.382812 117.84375 182.574219 C 116.785156 180.921875 115.566406 179.308594 114.308594 177.777344 C 113.601562 176.871094 112.617188 176.125 111.871094 175.21875 C 110.140625 173.175781 108.058594 171.761719 105.464844 171.011719 C 104.597656 170.777344 103.8125 170.34375 102.988281 170.109375 C 101.730469 169.753906 100.433594 169.480469 99.175781 169.203125 C 99.019531 169.164062 98.78125 169.398438 98.546875 169.519531 C 98.664062 169.675781 98.742188 169.949219 98.898438 170.03125 C 100.15625 170.460938 101.453125 170.855469 102.710938 171.289062 C 104.402344 171.917969 106.132812 172.507812 107.78125 173.214844 C 109.789062 174.039062 110.925781 175.847656 112.421875 177.304688 C 114.699219 179.546875 116.390625 182.296875 118.160156 184.972656 C 119.257812 186.664062 120.320312 188.433594 121.144531 190.242188 C 122.363281 192.835938 123.308594 195.550781 124.449219 198.1875 C 124.996094 199.484375 125.546875 200.9375 126.492188 201.921875 C 127.984375 203.496094 129.714844 204.832031 131.484375 206.011719 C 133.171875 207.152344 135.058594 207.976562 136.867188 208.960938 C 139.148438 210.21875 141.425781 211.515625 143.746094 212.777344 C 145.789062 213.875 147.910156 214.859375 149.914062 216 C 151.371094 216.824219 152.667969 217.925781 154.160156 218.714844 C 154.632812 218.949219 155.144531 219.183594 155.652344 219.382812 C 156.992188 220.484375 158.40625 221.503906 159.976562 222.054688 C 160.566406 222.253906 161.3125 222.371094 161.824219 221.976562 C 162.335938 221.546875 162.414062 220.757812 162.21875 220.089844 C 162.019531 219.460938 161.550781 218.949219 161.078125 218.476562 C 160.921875 218.320312 160.761719 218.164062 160.605469 218.003906 C 160.566406 216.90625 160.253906 215.804688 159.664062 214.898438 C 158.40625 212.933594 156.597656 211.515625 154.789062 210.140625 C 152.589844 208.449219 150.230469 206.917969 147.949219 205.304688 C 146.929688 204.554688 145.828125 203.886719 145.003906 203.023438 C 143.273438 201.214844 141.742188 199.246094 140.050781 197.359375 C 138.320312 195.433594 137.890625 193.191406 138.28125 190.753906 C 138.398438 190.046875 138.714844 189.457031 139.578125 189.574219 C 140.992188 189.769531 142.527344 189.769531 143.824219 190.28125 C 146.144531 191.1875 148.382812 192.40625 150.664062 193.46875 C 153.21875 194.648438 155.8125 195.667969 158.167969 197.28125 C 159.976562 198.5 161.902344 199.5625 163.789062 200.703125 C 165.324219 201.605469 166.816406 202.511719 168.347656 203.375 C 169.292969 203.925781 170.472656 204.320312 171.179688 205.105469 C 172.277344 206.285156 173.105469 207.742188 173.96875 209.15625 C 174.832031 210.496094 175.542969 211.949219 176.367188 213.324219 C 177.46875 215.09375 178.6875 216.785156 179.707031 218.59375 C 180.652344 220.285156 181.4375 222.09375 182.300781 223.863281 C 183.285156 225.949219 184.148438 228.113281 185.25 230.15625 C 186.191406 231.925781 187.292969 233.65625 188.511719 235.269531 C 188.984375 235.898438 189.886719 236.292969 190.671875 236.644531 C 190.949219 237.273438 191.222656 237.863281 191.539062 238.414062 C 191.929688 239.042969 192.402344 239.714844 193.03125 239.714844 C 193.621094 239.714844 194.09375 239.082031 194.210938 238.335938 C 194.367188 237.589844 194.25 236.804688 194.09375 236.054688 C 193.855469 234.757812 193.582031 233.460938 193.265625 232.164062 C 192.953125 230.945312 192.558594 229.882812 191.929688 228.976562 C 191.929688 228.976562 191.929688 228.9375 191.929688 228.9375 C 191.222656 226.972656 190.554688 225.003906 189.886719 223.039062 C 191.378906 223.945312 192.796875 224.886719 194.054688 225.949219 C 196.609375 228.074219 199.203125 230.117188 202.503906 230.902344 C 203.484375 231.140625 204.546875 230.863281 204.78125 230.15625 C 205.410156 230.589844 206.039062 230.984375 206.707031 231.296875 C 207.375 231.613281 208.164062 231.886719 208.632812 231.574219 C 209.144531 231.257812 209.144531 230.472656 208.871094 229.765625 C 208.714844 229.09375 208.164062 228.464844 207.652344 227.914062 Z M 190.832031 227.679688 C 190.003906 227.207031 189.023438 227.484375 188.785156 228.78125 C 188.667969 229.449219 188.824219 230.15625 189.023438 230.863281 C 189.375 232.320312 189.730469 233.773438 190.203125 235.191406 C 189.652344 234.875 189.140625 234.523438 188.824219 234.089844 C 187.6875 232.4375 186.625 230.707031 185.722656 228.898438 C 184.109375 225.714844 182.773438 222.410156 181.082031 219.304688 C 179.316406 216.039062 177.230469 212.972656 175.34375 209.785156 C 174.714844 208.726562 174.164062 207.625 173.578125 206.523438 C 173.695312 206.445312 173.773438 206.328125 173.890625 206.246094 C 175.226562 207.386719 176.523438 208.527344 177.859375 209.628906 C 178.410156 210.101562 179.078125 210.457031 179.511719 210.964844 C 181.320312 213.089844 183.046875 215.332031 184.816406 217.457031 C 185.839844 218.675781 186.898438 219.894531 188.078125 220.957031 C 188.945312 221.742188 188.824219 222.765625 189.179688 223.667969 C 189.769531 225.003906 190.320312 226.34375 190.832031 227.679688 Z M 220.425781 169.792969 C 221.644531 169.792969 224.121094 166.175781 224.121094 164.40625 C 224.121094 166.214844 226.558594 169.792969 227.816406 169.792969 C 226.597656 169.792969 224.121094 173.410156 224.121094 175.179688 C 224.121094 173.410156 221.644531 169.792969 220.425781 169.792969 Z M 210.757812 143.683594 C 208.910156 143.683594 205.175781 149.148438 205.175781 151.902344 C 205.175781 149.148438 201.441406 143.683594 199.59375 143.683594 C 201.441406 143.683594 205.175781 138.214844 205.175781 135.464844 C 205.175781 138.214844 208.910156 143.683594 210.757812 143.683594 Z M 210.757812 143.683594 " fill-opacity="1" fill-rule="nonzero"/></g></svg>