<svg xmlns="http://www.w3.org/2000/svg" xmlns:xlink="http://www.w3.org/1999/xlink" width="500" zoomAndPan="magnify" viewBox="0 0 375 374.999991" height="500" preserveAspectRatio="xMidYMid meet" version="1.0"><defs><clipPath id="1c3b5331b9"><path d="M 140 141.210938 L 234.96875 141.210938 L 234.96875 233.460938 L 140 233.460938 Z M 140 141.210938 " clip-rule="nonzero"/></clipPath></defs><g clip-path="url(#1c3b5331b9)"><path fill="#000000" d="M 209.207031 174.800781 C 209.894531 174.800781 211.269531 172.78125 211.269531 171.761719 C 211.269531 172.78125 212.648438 174.800781 213.335938 174.800781 C 212.648438 174.800781 211.269531 176.824219 211.269531 177.84375 C 211.269531 176.824219 209.894531 174.800781 209.207031 174.800781 Z M 200.472656 199.183594 C 200.472656 198.160156 201.851562 196.140625 202.539062 196.140625 C 201.851562 196.140625 200.472656 194.121094 200.472656 193.097656 C 200.472656 194.121094 199.097656 196.140625 198.410156 196.140625 C 199.097656 196.140625 200.472656 198.160156 200.472656 199.183594 Z M 193.597656 164.46875 C 193.597656 163.445312 194.972656 161.425781 195.660156 161.425781 C 194.972656 161.425781 193.597656 159.402344 193.597656 158.382812 C 193.597656 159.402344 192.21875 161.425781 191.53125 161.425781 C 192.21875 161.445312 193.597656 163.464844 193.597656 164.46875 Z M 207.25 225.75 C 207.6875 226.4375 207.832031 227.148438 207.664062 227.792969 C 207.457031 228.503906 206.875 229.085938 205.976562 229.460938 C 205.621094 229.605469 205.269531 229.710938 204.894531 229.835938 C 204.726562 229.878906 204.539062 229.917969 204.371094 229.941406 C 204.207031 229.960938 204.039062 229.980469 203.871094 230.042969 C 203.640625 230.128906 203.433594 230.273438 203.226562 230.441406 C 202.976562 230.628906 202.703125 230.835938 202.371094 230.898438 L 202.308594 230.917969 C 202.183594 230.941406 202.078125 230.960938 202.015625 231.023438 C 201.996094 231.042969 201.976562 231.066406 201.953125 231.085938 C 201.890625 231.191406 201.765625 231.335938 201.683594 231.417969 C 201.558594 231.542969 201.414062 231.648438 201.265625 231.753906 C 200.933594 231.960938 200.558594 232.066406 200.203125 232.066406 L 200.183594 232.066406 C 199.640625 232.023438 199.121094 231.917969 198.597656 231.835938 C 198.410156 231.792969 198.203125 231.773438 198.015625 231.730469 C 197.972656 231.816406 197.910156 231.917969 197.867188 232.023438 C 197.722656 232.355469 197.535156 232.710938 197.242188 232.960938 C 196.617188 233.460938 195.828125 233.460938 194.929688 232.980469 C 194.492188 232.753906 194.011719 232.398438 193.617188 232.105469 C 193.492188 232.003906 193.367188 231.917969 193.261719 231.855469 C 192.761719 232.128906 192.054688 232.398438 191.46875 232.355469 C 190.386719 232.273438 189.324219 231.878906 188.136719 231.105469 C 187.40625 230.628906 186.507812 230.230469 185.425781 229.898438 C 184.175781 229.503906 182.882812 229.105469 181.964844 228.042969 C 180.902344 226.835938 180.171875 225.875 179.589844 224.917969 C 178.734375 223.5 177.878906 222.0625 177.046875 220.644531 C 175.902344 218.6875 174.710938 216.644531 173.460938 214.707031 C 172.398438 213.039062 171.105469 211.5625 169.628906 209.914062 C 168.9375 209.144531 168.125 208.457031 167.355469 207.789062 C 167.0625 207.539062 166.773438 207.289062 166.480469 207.039062 C 166.125 206.726562 165.75 206.414062 165.394531 206.101562 L 165.25 205.976562 C 165.230469 206.351562 165.230469 206.746094 165.230469 207.164062 C 165.25 208.164062 165.292969 209.164062 165.355469 210.144531 C 165.394531 210.875 165.4375 211.625 165.457031 212.375 C 165.480469 213.125 165.75 213.664062 166.292969 214.0625 C 166.667969 214.351562 167.0625 214.644531 167.4375 215 C 167.6875 215.226562 167.9375 215.476562 168.1875 215.707031 C 169 216.480469 169.835938 217.269531 170.585938 218.125 C 171.042969 218.667969 171.253906 219.25 171.191406 219.8125 C 171.355469 220.019531 171.441406 220.269531 171.460938 220.605469 C 171.460938 220.6875 171.398438 220.75 171.335938 220.792969 C 171.335938 220.792969 171.335938 220.792969 171.316406 220.792969 C 171.378906 220.875 171.460938 220.980469 171.523438 221.0625 C 171.941406 221.625 172.378906 222.1875 172.566406 222.835938 C 172.648438 223.105469 172.691406 223.375 172.734375 223.648438 L 172.773438 223.667969 L 172.734375 223.6875 C 172.796875 224.085938 172.816406 224.5 172.835938 224.855469 C 172.859375 225.0625 172.859375 225.292969 172.859375 225.5 C 172.878906 225.792969 172.878906 226.085938 172.898438 226.355469 C 172.921875 226.75 172.753906 226.980469 172.566406 227.25 C 172.484375 227.375 172.378906 227.523438 172.273438 227.710938 C 172.167969 227.941406 172.066406 228.273438 171.980469 228.605469 C 171.917969 228.878906 171.835938 229.148438 171.753906 229.335938 C 171.691406 229.503906 171.585938 229.667969 171.503906 229.816406 C 171.355469 230.085938 171.230469 230.316406 171.167969 230.585938 C 170.855469 232.066406 169.730469 233.105469 168.25 233.253906 C 168.167969 233.253906 168.105469 233.273438 168.023438 233.292969 C 167.9375 233.316406 167.835938 233.335938 167.75 233.335938 C 167.417969 233.355469 167.105469 233.378906 166.792969 233.378906 C 163.625 233.378906 161.164062 231.960938 159.808594 229.316406 C 159.121094 227.980469 158.058594 226.792969 157.039062 225.6875 C 156.601562 225.210938 156.058594 224.792969 155.558594 224.398438 C 155.035156 223.980469 154.496094 223.5625 154.035156 223.0625 C 153.515625 222.480469 153.078125 221.644531 152.871094 220.75 C 152.722656 220.144531 152.765625 219.519531 152.808594 218.894531 C 152.828125 218.644531 152.828125 218.375 152.828125 218.125 C 152.828125 217.519531 152.847656 216.917969 152.871094 216.332031 C 152.910156 215.039062 152.933594 213.707031 152.847656 212.394531 C 152.722656 210.75 152.496094 209.082031 152.242188 207.476562 C 152.179688 207.019531 152.117188 206.558594 152.054688 206.101562 C 152.035156 205.832031 151.804688 205.121094 151.765625 205.058594 C 151.679688 204.894531 151.554688 204.726562 151.453125 204.539062 C 151.367188 204.433594 151.304688 204.308594 151.242188 204.203125 C 151.054688 203.933594 150.703125 203.390625 150.703125 203.390625 C 149.890625 202.265625 148.824219 201.226562 147.304688 199.996094 C 145.28125 198.390625 143.238281 196.578125 141.925781 194.121094 C 140.78125 191.972656 139.738281 189.140625 141.988281 186.347656 C 142.386719 185.847656 142.84375 185.367188 143.40625 184.785156 C 143.738281 184.449219 144.09375 184.136719 144.429688 183.847656 C 145.074219 183.285156 145.71875 182.679688 146.242188 182.011719 C 147.472656 180.429688 148.636719 178.699219 149.722656 176.886719 C 151.640625 173.675781 153.496094 170.132812 154.222656 166.15625 C 154.308594 165.71875 154.390625 165.238281 154.515625 164.613281 C 153.910156 163.488281 153.390625 162.300781 152.871094 161.152344 C 152.578125 160.507812 152.285156 159.839844 151.972656 159.195312 C 151.453125 158.089844 150.929688 156.964844 150.429688 155.882812 L 150.285156 155.589844 C 150.078125 155.132812 149.890625 154.671875 149.703125 154.214844 C 149.304688 153.257812 148.910156 152.277344 148.347656 151.402344 C 146.992188 149.339844 145.929688 146.941406 144.96875 143.835938 C 144.867188 143.484375 144.804688 143.085938 144.742188 142.710938 C 144.71875 142.546875 144.699219 142.378906 144.65625 142.210938 L 144.617188 142.023438 L 144.804688 142.066406 C 145.011719 142.109375 145.117188 142.210938 145.15625 142.378906 C 145.761719 145.441406 146.847656 148.152344 148.472656 150.691406 C 149.117188 151.714844 149.640625 152.839844 150.140625 153.921875 C 150.222656 154.132812 150.328125 154.320312 150.410156 154.527344 C 150.554688 154.859375 150.679688 155.214844 150.785156 155.570312 C 150.890625 155.902344 150.992188 156.257812 151.140625 156.570312 C 152.328125 159.089844 153.410156 161.382812 154.578125 163.675781 C 155.058594 164.59375 155.558594 165.53125 156.058594 166.40625 C 156.601562 167.363281 157.140625 168.34375 157.640625 169.34375 C 158.601562 171.261719 159.558594 173.238281 160.476562 175.15625 C 160.957031 176.15625 161.4375 177.15625 161.914062 178.15625 C 162.3125 178.949219 162.707031 179.742188 163.101562 180.554688 C 163.894531 182.136719 164.707031 183.761719 165.4375 185.410156 C 166.5625 187.929688 166.457031 190.160156 165.125 192.203125 C 165.019531 192.367188 164.894531 192.554688 164.792969 192.722656 C 163.519531 194.640625 162.226562 196.621094 162.101562 199.078125 L 162.101562 199.101562 C 162.039062 200.390625 161.976562 201.726562 162.789062 202.746094 C 163.726562 203.914062 164.769531 205.246094 166.0625 206.144531 C 167.4375 207.101562 168.773438 208.289062 170.273438 209.933594 C 172.378906 212.226562 174.296875 214.914062 175.984375 217.875 C 177.484375 220.519531 179.132812 223.25 181.007812 226.230469 C 181.964844 227.730469 183.363281 228.773438 185.195312 229.316406 C 186.320312 229.648438 187.40625 230.128906 188.386719 230.710938 C 189.261719 231.230469 190.324219 231.773438 191.574219 231.816406 C 191.886719 231.835938 192.429688 231.648438 192.785156 231.503906 C 192.785156 231.503906 192.804688 231.503906 192.804688 231.480469 C 192.824219 231.417969 192.804688 231.316406 192.761719 231.230469 C 192.761719 231.210938 192.742188 231.210938 192.742188 231.191406 C 192.699219 231.253906 192.679688 231.292969 192.617188 231.335938 C 192.449219 231.503906 192.242188 231.585938 191.96875 231.585938 C 191.949219 231.585938 191.929688 231.585938 191.886719 231.585938 C 191.53125 231.566406 191.242188 231.417969 191.09375 231.191406 C 190.96875 231.023438 190.949219 230.816406 191.011719 230.605469 C 191.09375 230.316406 191.304688 230.085938 191.492188 229.855469 C 191.554688 229.792969 191.617188 229.753906 191.699219 229.710938 C 191.261719 229.167969 190.804688 228.628906 190.367188 228.085938 C 190.136719 227.792969 189.886719 227.523438 189.65625 227.230469 L 188.96875 226.398438 L 189.824219 227.0625 C 189.886719 227.125 189.96875 227.167969 190.074219 227.230469 C 190.304688 227.398438 190.574219 227.5625 190.78125 227.8125 L 190.886719 227.960938 C 191.34375 228.503906 191.824219 229.066406 192.261719 229.648438 C 192.449219 229.710938 192.597656 229.835938 192.699219 230.003906 C 192.761719 230.128906 192.847656 230.316406 192.867188 230.503906 C 192.886719 230.523438 192.910156 230.566406 192.929688 230.585938 C 193.449219 231.398438 194.179688 232.042969 195.136719 232.523438 C 195.765625 232.835938 196.660156 232.773438 197.054688 232.378906 C 197.304688 232.128906 197.390625 231.753906 197.347656 231.378906 C 197.242188 231.503906 197.097656 231.628906 196.929688 231.773438 C 196.847656 231.855469 196.765625 231.941406 196.660156 232.023438 C 196.578125 232.105469 196.472656 232.148438 196.347656 232.148438 C 196.328125 232.148438 196.328125 232.148438 196.304688 232.148438 C 196.179688 232.128906 196.054688 232.066406 195.972656 231.960938 C 195.910156 231.898438 195.867188 231.816406 195.828125 231.753906 C 195.554688 231.398438 195.347656 231.128906 195.410156 230.878906 C 195.472656 230.542969 195.765625 230.273438 196.035156 230.003906 L 196.140625 229.898438 C 196.242188 229.792969 196.367188 229.753906 196.515625 229.773438 C 196.179688 229.316406 195.847656 228.917969 195.492188 228.585938 C 194.929688 228.023438 194.324219 227.480469 193.722656 226.960938 C 193.472656 226.730469 193.199219 226.5 192.949219 226.273438 L 192.199219 225.605469 L 193.097656 226.085938 C 194.867188 227.042969 196.304688 228.417969 197.367188 230.148438 C 198.054688 231.273438 198.972656 231.710938 200.285156 231.542969 C 200.703125 231.480469 201.289062 231.167969 201.453125 230.835938 C 201.515625 230.691406 201.433594 230.417969 201.246094 230.085938 C 200.996094 230.355469 200.746094 230.605469 200.433594 230.753906 C 200.410156 230.773438 200.390625 230.773438 200.371094 230.773438 C 200.222656 230.773438 200.035156 230.585938 199.722656 230.210938 L 199.558594 230.023438 C 199.472656 229.917969 199.433594 229.792969 199.433594 229.667969 C 199.433594 229.542969 199.496094 229.417969 199.597656 229.335938 L 199.722656 229.210938 C 199.910156 229.042969 200.078125 228.898438 200.246094 228.816406 C 200.078125 228.648438 199.890625 228.480469 199.722656 228.292969 L 199.578125 228.148438 C 199.035156 227.625 198.515625 227.105469 197.929688 226.667969 C 197.472656 226.3125 196.972656 225.980469 196.472656 225.667969 C 196.265625 225.523438 196.035156 225.398438 195.828125 225.25 L 195.929688 225.042969 C 197.972656 225.875 199.535156 227.292969 200.871094 228.855469 C 201.039062 228.960938 201.183594 229.128906 201.308594 229.273438 L 201.371094 229.335938 C 201.433594 229.417969 201.476562 229.503906 201.496094 229.585938 C 201.726562 229.855469 201.933594 230.128906 202.140625 230.417969 C 202.828125 230.335938 203.371094 229.898438 203.664062 229.191406 C 203.765625 228.941406 203.765625 228.710938 203.703125 228.480469 C 203.515625 228.691406 203.351562 228.835938 203.183594 228.835938 C 203.164062 228.835938 203.140625 228.835938 203.121094 228.835938 C 202.828125 228.773438 202.578125 228.523438 202.308594 228.210938 L 202.183594 228.066406 C 202.101562 227.980469 202.058594 227.835938 202.058594 227.710938 C 202.078125 227.585938 202.140625 227.460938 202.246094 227.375 L 202.351562 227.292969 C 202.476562 227.1875 202.601562 227.105469 202.703125 227.042969 C 201.351562 225.5625 199.703125 224.3125 197.804688 223.292969 C 197.578125 223.167969 197.367188 223 197.160156 222.855469 C 197.054688 222.792969 196.972656 222.710938 196.867188 222.648438 L 196.765625 222.585938 L 197.054688 222.167969 L 197.160156 222.230469 C 197.617188 222.5625 198.097656 222.875 198.578125 223.1875 C 199.660156 223.898438 200.765625 224.648438 201.765625 225.5 C 201.890625 225.605469 202.015625 225.730469 202.164062 225.835938 C 202.703125 226.292969 203.289062 226.792969 203.703125 227.417969 C 203.765625 227.480469 203.808594 227.523438 203.871094 227.585938 L 203.914062 227.648438 C 204.039062 227.773438 204.082031 227.941406 204.019531 228.105469 C 204.164062 228.523438 204.226562 228.980469 204.164062 229.523438 C 204.332031 229.480469 204.476562 229.441406 204.621094 229.398438 C 205.019531 229.292969 205.414062 229.191406 205.769531 229.042969 C 206.496094 228.753906 206.976562 228.316406 207.144531 227.773438 C 207.289062 227.3125 207.226562 226.792969 206.957031 226.25 C 206.539062 226.855469 205.832031 227.480469 205.457031 227.523438 C 205.433594 227.523438 205.414062 227.523438 205.394531 227.523438 C 205.246094 227.523438 205.082031 227.480469 204.976562 227.375 C 204.851562 227.25 204.707031 227.148438 204.582031 227.023438 C 204.164062 226.667969 203.746094 226.292969 203.414062 225.855469 C 203.164062 225.523438 203.140625 225 203.390625 224.5 C 203.578125 224.105469 203.894531 223.8125 204.246094 223.667969 C 204.121094 223.585938 203.996094 223.5 203.871094 223.398438 C 203.390625 223.042969 202.871094 222.6875 202.390625 222.335938 C 201.851562 221.9375 201.308594 221.542969 200.765625 221.167969 C 199.371094 220.167969 197.910156 219.125 196.617188 217.9375 C 195.160156 216.605469 193.972656 214.769531 192.929688 212.207031 C 192.449219 211.019531 191.949219 209.851562 191.46875 208.683594 C 190.949219 207.433594 190.40625 206.144531 189.886719 204.851562 C 189.804688 204.621094 189.699219 204.390625 189.617188 204.164062 C 189.175781 203.121094 188.738281 202.015625 188.40625 200.914062 C 188.15625 200.015625 187.949219 199.078125 187.738281 198.183594 C 187.46875 196.953125 187.175781 195.683594 186.761719 194.472656 C 186.007812 192.304688 185.113281 190.140625 184.257812 188.054688 C 183.925781 187.261719 183.613281 186.472656 183.277344 185.679688 C 182.777344 184.449219 182.277344 183.222656 181.777344 182.011719 C 180.777344 179.59375 179.734375 177.074219 178.820312 174.574219 C 177.734375 171.65625 177.441406 168.550781 177.152344 165.53125 C 177.003906 164.070312 176.878906 162.570312 176.652344 161.113281 C 176.421875 159.589844 176.441406 158.007812 176.464844 156.464844 C 176.464844 155.902344 176.484375 155.339844 176.484375 154.777344 C 176.464844 152.816406 176.464844 150.796875 176.484375 148.878906 C 176.484375 148.003906 176.484375 147.109375 176.484375 146.234375 C 176.484375 145.773438 176.484375 145.316406 176.484375 144.859375 C 176.484375 143.753906 176.484375 142.628906 176.464844 141.523438 L 176.464844 141.210938 L 176.878906 141.210938 L 176.878906 141.316406 C 176.941406 141.898438 176.984375 142.523438 176.984375 143.148438 C 176.984375 144.234375 176.941406 145.335938 176.902344 146.398438 C 176.839844 147.984375 176.777344 149.609375 176.859375 151.214844 C 176.921875 152.609375 176.921875 154.007812 176.921875 155.382812 C 176.921875 156.445312 176.921875 157.527344 176.964844 158.589844 C 177.109375 158.296875 177.253906 158.007812 177.402344 157.695312 C 177.484375 157.527344 177.566406 157.382812 177.628906 157.214844 C 177.816406 156.820312 178.027344 156.421875 178.234375 156.027344 C 180.921875 151.277344 183.152344 146.296875 185.300781 141.484375 L 185.425781 141.210938 L 185.945312 141.210938 L 185.863281 141.378906 C 183.757812 146.023438 181.277344 151.402344 178.484375 156.507812 C 178.195312 157.070312 177.902344 157.652344 177.609375 158.234375 C 177.402344 158.671875 177.191406 159.089844 176.984375 159.527344 C 177.066406 161.339844 177.234375 162.839844 177.503906 164.238281 C 177.714844 165.300781 177.816406 166.40625 177.902344 167.46875 C 177.984375 168.363281 178.066406 169.300781 178.214844 170.21875 C 178.902344 174.363281 180.570312 178.304688 182.152344 182.097656 C 182.339844 182.554688 182.550781 183.011719 182.738281 183.492188 C 183.175781 184.554688 183.632812 185.617188 184.09375 186.699219 C 185.070312 189.015625 186.09375 191.410156 187.011719 193.785156 C 187.449219 194.933594 187.699219 196.140625 187.96875 197.328125 C 188.113281 198.015625 188.28125 198.722656 188.46875 199.414062 C 188.863281 200.871094 189.238281 202.203125 189.742188 203.453125 C 190.15625 204.476562 190.59375 205.496094 191.054688 206.476562 C 191.617188 207.726562 192.179688 209.019531 192.660156 210.308594 C 194.285156 214.6875 196.429688 217.667969 199.390625 219.730469 C 199.765625 219.980469 200.140625 220.25 200.515625 220.5 C 201.976562 221.5 203.476562 222.542969 204.933594 223.605469 C 205.082031 223.730469 205.246094 223.835938 205.394531 223.960938 C 206.039062 224.355469 206.601562 224.710938 207.144531 225.042969 C 207.269531 225.125 207.351562 225.3125 207.351562 225.4375 C 207.351562 225.480469 207.3125 225.605469 207.25 225.75 Z M 171.730469 228.042969 C 171.730469 228.023438 171.730469 227.980469 171.730469 227.960938 C 171.710938 227.980469 171.710938 228.003906 171.691406 228.003906 C 171.628906 228.066406 171.566406 228.105469 171.503906 228.167969 C 171.230469 228.417969 171.023438 228.605469 170.753906 228.691406 C 170.730469 228.691406 170.730469 228.691406 170.710938 228.691406 C 170.878906 228.878906 171.003906 229.085938 171.128906 229.335938 C 171.523438 228.941406 171.730469 228.503906 171.730469 228.042969 Z M 172.503906 226.148438 C 172.484375 226.1875 172.441406 226.230469 172.398438 226.273438 L 172.335938 226.3125 C 172.105469 226.480469 171.917969 226.605469 171.710938 226.625 C 171.691406 226.625 171.691406 226.625 171.667969 226.625 C 171.585938 226.625 171.503906 226.605469 171.417969 226.605469 C 171.628906 226.835938 171.835938 227.0625 172.023438 227.3125 C 172.105469 227.25 172.273438 227.105469 172.292969 227.0625 C 172.460938 226.730469 172.523438 226.4375 172.503906 226.148438 Z M 172.335938 223.960938 C 172.191406 224.085938 172.023438 224.210938 171.855469 224.25 C 172.003906 224.417969 172.167969 224.585938 172.316406 224.730469 C 172.355469 224.480469 172.355469 224.210938 172.335938 223.960938 Z M 164.980469 211 C 165 210.914062 164.980469 210.832031 164.980469 210.75 C 164.980469 210.707031 164.957031 210.644531 164.957031 210.601562 C 164.9375 210.121094 164.894531 209.644531 164.855469 209.183594 C 164.769531 208.121094 164.6875 207.039062 164.75 205.976562 C 164.75 205.851562 164.769531 205.746094 164.769531 205.621094 C 164.375 205.289062 163.9375 204.914062 163.519531 204.496094 C 161.457031 202.433594 161.019531 199.808594 162.226562 196.703125 C 162.789062 195.285156 163.601562 193.785156 164.8125 191.992188 C 165.894531 190.390625 166.0625 188.554688 165.332031 186.261719 C 164.8125 184.617188 164.0625 182.972656 163.164062 181.492188 C 161.625 178.929688 160.332031 176.199219 159.101562 173.53125 C 157.914062 170.96875 156.664062 168.34375 155.203125 165.863281 C 155.097656 165.695312 154.996094 165.507812 154.890625 165.320312 C 154.203125 168.257812 153.328125 171.363281 151.742188 174.324219 C 151.578125 174.65625 151.390625 174.96875 151.222656 175.300781 C 149.785156 178.011719 148.304688 180.824219 146.03125 183.054688 C 145.65625 183.410156 145.28125 183.761719 144.90625 184.097656 C 144.449219 184.511719 143.992188 184.929688 143.550781 185.386719 C 140.757812 188.242188 140.695312 189.890625 141.96875 193.078125 C 142.96875 195.640625 144.929688 197.496094 146.511719 198.828125 C 148.136719 200.203125 149.535156 201.515625 150.785156 202.871094 C 150.867188 202.976562 150.972656 203.078125 151.078125 203.226562 C 151.097656 203.246094 151.535156 203.808594 151.742188 204.101562 C 151.890625 204.328125 152.078125 204.601562 152.222656 204.894531 C 152.453125 205.371094 152.558594 206.101562 152.578125 206.121094 C 152.703125 206.851562 152.828125 207.621094 152.910156 208.414062 C 152.953125 208.851562 153.015625 209.289062 153.058594 209.726562 C 153.222656 211.164062 153.390625 212.644531 153.433594 214.125 C 153.472656 215.144531 153.453125 216.207031 153.433594 217.207031 C 153.410156 218.25 153.390625 219.3125 153.433594 220.355469 C 153.453125 221.105469 153.765625 221.917969 154.183594 222.460938 C 154.722656 223.148438 155.453125 223.710938 156.164062 224.25 L 156.476562 224.5 C 158.039062 225.710938 159.332031 227.273438 160.308594 229.148438 C 161.351562 231.128906 162.8125 232.273438 164.769531 232.691406 C 166.042969 232.960938 167.25 233.003906 168.480469 232.792969 C 169.542969 232.628906 170.542969 231.648438 170.753906 230.566406 C 170.855469 230.023438 170.773438 229.566406 170.523438 229.167969 C 170.566406 229.273438 170.566406 229.398438 170.503906 229.503906 C 170.003906 230.441406 169.417969 230.855469 168.5 230.855469 C 168.375 230.855469 168.25 230.855469 168.125 230.835938 C 167.667969 230.792969 167.1875 230.730469 166.75 230.542969 C 166.480469 230.441406 166.144531 230.105469 166.105469 229.816406 C 166.042969 229.316406 166.230469 228.816406 166.625 228.460938 C 167 228.128906 167.480469 227.980469 167.9375 228.105469 C 168.5625 228.253906 169.1875 228.503906 169.792969 228.730469 C 169.960938 228.792969 170.128906 228.855469 170.292969 228.917969 C 170.335938 228.941406 170.355469 228.960938 170.398438 228.980469 C 170.191406 228.730469 169.878906 228.503906 169.480469 228.292969 C 168.980469 228.023438 168.460938 227.792969 167.9375 227.5625 C 167.4375 227.335938 166.898438 227.085938 166.394531 226.835938 C 164.667969 225.9375 163.414062 223.417969 163.75 221.480469 L 163.894531 220.605469 L 163.980469 221.480469 C 164.292969 224.460938 165.5625 226.25 167.980469 227.105469 L 168.125 227.167969 C 168.542969 227.3125 168.960938 227.480469 169.375 227.667969 C 169.355469 227.5625 169.375 227.480469 169.398438 227.398438 C 169.480469 227.105469 170.042969 226.855469 170.335938 226.917969 C 170.691406 226.980469 171.023438 227.148438 171.398438 227.335938 L 171.648438 227.460938 C 171.648438 227.460938 171.667969 227.460938 171.667969 227.480469 C 171.542969 227.167969 171.335938 226.875 171.042969 226.625 C 170.335938 226 169.691406 225.292969 169.148438 224.542969 C 168.648438 223.835938 168.1875 223.0625 167.75 222.335938 C 167.5625 222.019531 167.375 221.730469 167.1875 221.417969 C 167.125 221.3125 167.0625 221.207031 167 221.082031 L 166.855469 220.832031 L 166.960938 220.769531 C 167.0625 220.707031 167.105469 220.6875 168.0625 222.0625 C 168.5625 222.792969 169.125 223.625 169.460938 224.167969 C 169.816406 224.730469 170.191406 225.230469 170.605469 225.710938 C 170.628906 225.542969 170.667969 225.4375 170.753906 225.398438 C 171.003906 225.25 171.378906 225.210938 171.667969 225.292969 C 171.898438 225.355469 172.105469 225.480469 172.335938 225.648438 L 172.398438 225.6875 C 172.273438 225.355469 172.066406 225.023438 171.753906 224.6875 C 171.355469 224.25 171.023438 223.773438 170.691406 223.3125 C 170.523438 223.0625 170.335938 222.8125 170.148438 222.5625 L 169.917969 222.273438 C 169.5 221.707031 169.0625 221.144531 168.605469 220.605469 C 168.25 220.1875 167.855469 219.792969 167.480469 219.394531 C 167.3125 219.230469 167.148438 219.042969 166.980469 218.875 L 166.167969 218.019531 L 167.148438 218.707031 C 167.898438 219.230469 168.5 219.75 169 220.332031 C 169.691406 221.105469 170.167969 221.75 170.566406 222.398438 C 170.667969 222.585938 170.878906 222.917969 171.128906 223.292969 C 171.128906 223.230469 171.128906 223.1875 171.148438 223.125 C 171.167969 223 171.230469 222.898438 171.292969 222.855469 C 171.503906 222.730469 171.667969 222.6875 171.835938 222.730469 C 171.960938 222.773438 172.066406 222.835938 172.148438 222.9375 C 172.105469 222.835938 172.066406 222.710938 172.003906 222.625 C 171.191406 221.125 170.003906 219.980469 168.730469 218.832031 C 168.335938 218.480469 167.105469 217.1875 167.085938 216.980469 L 167.085938 216.9375 L 167.210938 216.8125 L 170.441406 219.875 C 170.480469 219.792969 170.542969 219.707031 170.628906 219.667969 C 170.648438 219.667969 170.667969 219.644531 170.691406 219.644531 C 170.503906 218.769531 170.023438 218 169.25 217.25 L 169.167969 217.1875 C 168.5 216.5625 167.8125 215.914062 167.042969 215.394531 C 165.3125 214.164062 164.667969 212.789062 164.980469 211 Z M 172.460938 199.851562 C 172.484375 199.871094 172.484375 199.914062 172.503906 199.933594 L 172.523438 199.933594 C 172.546875 199.976562 172.566406 199.996094 172.585938 199.996094 L 172.628906 200.015625 L 172.773438 199.953125 L 172.734375 199.851562 C 172.609375 199.578125 172.503906 199.289062 172.378906 199.015625 C 172.105469 198.390625 171.855469 197.746094 171.605469 197.097656 C 171.355469 196.433594 171.105469 195.722656 170.878906 195.058594 L 170.710938 194.597656 C 170.191406 193.097656 170.398438 191.578125 170.667969 190.304688 C 170.941406 189.078125 171.230469 187.617188 171.417969 186.136719 L 171.191406 186.097656 C 171.167969 186.199219 171.148438 186.285156 171.128906 186.367188 C 171.066406 186.574219 171.023438 186.785156 170.980469 186.992188 C 170.898438 187.367188 170.816406 187.765625 170.730469 188.140625 C 170.503906 189.242188 170.253906 190.367188 170.042969 191.492188 C 169.835938 192.597656 169.941406 193.703125 170.355469 194.828125 C 170.648438 195.746094 172.042969 199.101562 172.460938 199.851562 Z M 233.550781 199.078125 C 231.59375 201.871094 229.113281 204.289062 227.214844 207.144531 C 226.738281 207.851562 226.257812 208.558594 225.820312 209.289062 C 225.421875 209.957031 225.195312 210.726562 224.632812 211.269531 C 224.152344 211.726562 223.441406 211.5625 222.878906 211.226562 C 222.171875 210.8125 221.546875 210.207031 220.859375 209.769531 C 219.585938 211.1875 218.296875 212.539062 217.023438 213.957031 C 216.148438 214.9375 215.042969 215.875 214.417969 217.019531 C 213.792969 218.167969 213.460938 219.480469 212.835938 220.625 C 212.5625 221.105469 212.144531 221.375 211.730469 220.957031 C 211.542969 220.769531 211.519531 220.394531 211.269531 220.25 C 211.105469 220.144531 210.894531 220.25 210.707031 220.125 C 210.457031 219.957031 210.230469 219.519531 209.9375 219.3125 C 209.667969 219.125 209.414062 219.25 209.394531 218.8125 C 209.375 218.5625 209.644531 218.1875 209.8125 218.019531 C 210.269531 217.5625 211.042969 217.269531 211.582031 216.917969 C 212.207031 216.480469 212.835938 216.039062 213.398438 215.539062 C 214.542969 214.5625 215.460938 213.375 216.503906 212.3125 C 217.480469 211.3125 218.628906 210.414062 219.503906 209.308594 C 219.960938 208.746094 219.898438 208.851562 219.421875 208.308594 C 219.066406 207.914062 218.398438 206.996094 218.421875 206.457031 C 218.441406 205.914062 219.148438 205.707031 219.609375 205.414062 C 220.273438 204.996094 220.921875 204.578125 221.566406 204.101562 C 222.777344 203.183594 223.984375 202.265625 225.214844 201.390625 C 227.195312 199.953125 229.214844 198.640625 231.15625 197.140625 C 231.96875 196.515625 233.09375 195.265625 234.011719 196.308594 C 234.949219 197.347656 234.261719 198.058594 233.550781 199.078125 Z M 214.398438 216.457031 C 213.980469 216.4375 213.6875 216.1875 213.417969 215.894531 C 212.460938 216.542969 211.542969 217.230469 210.5625 217.855469 C 210.332031 218 209.605469 218.5 209.769531 218.855469 C 209.855469 219.019531 210.042969 218.957031 210.167969 219.042969 C 210.375 219.167969 210.5 219.355469 210.667969 219.542969 C 210.730469 219.605469 210.894531 219.832031 210.957031 219.855469 C 211.082031 219.917969 211.292969 219.875 211.417969 219.9375 C 211.707031 220.082031 211.894531 220.9375 212.3125 220.875 C 212.667969 220.8125 212.875 219.8125 212.980469 219.542969 C 213.1875 219.019531 213.605469 218.457031 213.648438 217.894531 C 213.3125 218.542969 212.9375 219.1875 212.480469 219.75 C 212.9375 218.769531 213.335938 217.4375 214.023438 216.605469 C 214.167969 216.6875 213.5625 217.644531 213.730469 217.730469 C 213.960938 217.3125 214.167969 216.875 214.398438 216.457031 Z M 220.128906 209.082031 C 218.753906 210.519531 217.316406 211.894531 215.941406 213.332031 C 215.355469 213.9375 214.5 214.6875 213.960938 215.414062 C 213.898438 215.5 213.625 215.726562 213.625 215.726562 L 214.523438 216.164062 C 214.523438 216.164062 214.8125 215.875 214.9375 215.75 C 216.167969 214.519531 217.316406 213.1875 218.484375 211.894531 C 219.066406 211.25 219.796875 210.625 220.316406 209.933594 C 220.609375 209.558594 220.585938 209.351562 220.128906 209.082031 Z M 234.074219 196.953125 C 233.363281 195.371094 232.175781 196.621094 231.34375 197.347656 C 230.070312 198.453125 228.613281 199.351562 227.214844 200.289062 C 224.320312 202.226562 221.589844 204.371094 218.691406 206.308594 C 218.984375 206.996094 219.148438 207.601562 219.671875 208.164062 C 219.984375 208.519531 220.359375 208.808594 220.691406 209.144531 C 221.046875 209.476562 221.378906 209.769531 221.796875 210.039062 C 222.402344 210.433594 222.921875 211.019531 223.628906 211.207031 C 224.339844 211.394531 224.570312 211.019531 224.921875 210.433594 C 225.320312 209.769531 225.671875 209.082031 226.109375 208.414062 C 226.988281 207.082031 227.839844 205.851562 228.902344 204.640625 C 230.03125 203.351562 231.050781 201.976562 232.09375 200.640625 C 232.699219 199.808594 234.550781 198.058594 234.074219 196.953125 Z M 231.425781 199.578125 C 230.445312 200.664062 229.402344 201.703125 228.464844 202.851562 C 227.757812 203.703125 227.050781 204.578125 226.402344 205.496094 C 226.089844 205.933594 225.046875 207.058594 225.109375 207.644531 C 226.382812 205.996094 227.570312 204.289062 228.882812 202.683594 C 230.28125 200.996094 231.945312 199.515625 233.261719 197.765625 C 232.800781 197.683594 231.675781 199.308594 231.425781 199.578125 Z M 222.214844 205.207031 C 222.066406 205.308594 220.585938 206.414062 220.628906 206.496094 C 221.171875 206.601562 222.378906 205.394531 222.753906 205.101562 C 223.753906 204.328125 224.714844 203.515625 225.695312 202.726562 C 224.421875 203.140625 223.253906 204.414062 222.214844 205.207031 Z M 223.402344 209.832031 C 223.359375 209.894531 223.046875 210.351562 223.109375 210.414062 C 223.191406 210.371094 224.359375 209.039062 224.214844 208.957031 C 224.109375 208.914062 223.464844 209.746094 223.402344 209.832031 Z M 211.042969 218.707031 C 211.0625 218.730469 211.957031 217.894531 211.980469 217.875 C 212.125 217.75 213.5 216.3125 213.542969 216.355469 C 213.4375 216.3125 212.355469 217.292969 212.292969 217.355469 C 212.25 217.394531 210.75 218.582031 211.042969 218.707031 Z M 211.75 219.230469 C 212.0625 218.855469 212.417969 218.542969 212.730469 218.1875 C 212.835938 218.0625 213.523438 216.875 213.5625 216.875 C 213.167969 216.855469 211.6875 218.894531 211.75 219.230469 Z M 211.75 219.230469 " fill-opacity="1" fill-rule="nonzero"/></g></svg>