<svg xmlns="http://www.w3.org/2000/svg" xmlns:xlink="http://www.w3.org/1999/xlink" width="500" zoomAndPan="magnify" viewBox="0 0 375 374.999991" height="500" preserveAspectRatio="xMidYMid meet" version="1.0"><defs><filter x="0%" y="0%" width="100%" height="100%" id="92e3c6d9e3"><feColorMatrix values="0 0 0 0 1 0 0 0 0 1 0 0 0 0 1 0 0 0 1 0" color-interpolation-filters="sRGB"/></filter><g/><mask id="3a2259e8e6"><g filter="url(#92e3c6d9e3)"><rect x="-37.5" width="450" fill="#000000" y="-37.499999" height="449.999989" fill-opacity="0.7765"/></g></mask><clipPath id="9f242b625a"><rect x="0" width="355" y="0" height="78"/></clipPath></defs><g mask="url(#3a2259e8e6)"><g transform="matrix(1, 0, 0, 1, 11, 156)"><g clip-path="url(#9f242b625a)"><g fill="#cf7866" fill-opacity="1"><g transform="translate(3.451901, 54.569166)"><g><path d="M 97.484375 -41.015625 C 96.359375 -42.410156 95.128906 -43.65625 93.796875 -44.75 C 92.472656 -45.851562 91.054688 -46.835938 89.546875 -47.703125 C 85.734375 -49.847656 81.800781 -51 77.75 -51.15625 C 73.707031 -51.3125 69.628906 -50.671875 65.515625 -49.234375 C 61.410156 -47.804688 57.359375 -45.757812 53.359375 -43.09375 C 49.367188 -40.4375 45.519531 -37.359375 41.8125 -33.859375 C 38.101562 -30.359375 34.628906 -26.625 31.390625 -22.65625 C 28.148438 -18.6875 25.21875 -14.671875 22.59375 -10.609375 C 19.96875 -6.554688 17.742188 -2.644531 15.921875 1.125 C 15.109375 3.019531 14.328125 4.914062 13.578125 6.8125 C 13.234375 7.6875 12.882812 8.554688 12.53125 9.421875 C 12.476562 9.566406 12.421875 9.710938 12.359375 9.859375 C 12.234375 10.191406 12.09375 10.515625 11.9375 10.828125 C 11.800781 11.085938 11.609375 11.265625 11.359375 11.359375 C 11.117188 11.460938 10.859375 11.460938 10.578125 11.359375 C 10.347656 11.273438 10.21875 11.097656 10.1875 10.828125 C 10.1875 10.453125 10.222656 10.082031 10.296875 9.71875 C 10.523438 8.375 10.703125 7.035156 10.828125 5.703125 C 10.960938 4.367188 11.066406 3.03125 11.140625 1.6875 C 11.179688 1.289062 11.210938 0.890625 11.234375 0.484375 C 11.253906 0.304688 11.273438 0.117188 11.296875 -0.078125 C 11.472656 -2.390625 11.617188 -4.707031 11.734375 -7.03125 C 11.785156 -8.132812 11.804688 -9.222656 11.796875 -10.296875 C 11.796875 -10.710938 11.796875 -11.128906 11.796875 -11.546875 C 11.796875 -11.566406 11.796875 -11.585938 11.796875 -11.609375 C 11.804688 -11.898438 11.785156 -12.179688 11.734375 -12.453125 C 11.691406 -12.648438 11.660156 -12.859375 11.640625 -13.078125 C 11.609375 -13.390625 11.550781 -13.695312 11.46875 -14 C 11.382812 -14.300781 11.226562 -14.570312 11 -14.8125 C 10.625 -14.769531 10.320312 -14.625 10.09375 -14.375 C 9.863281 -14.132812 9.675781 -13.859375 9.53125 -13.546875 C 9.425781 -13.390625 9.328125 -13.242188 9.234375 -13.109375 C 8.171875 -11.535156 7.226562 -9.894531 6.40625 -8.1875 C 5.789062 -6.957031 5.175781 -5.738281 4.5625 -4.53125 C 3.695312 -2.789062 2.835938 -1.050781 1.984375 0.6875 C 1.691406 1.257812 1.382812 1.820312 1.0625 2.375 C 0.90625 2.644531 0.722656 2.890625 0.515625 3.109375 C 0.078125 3.484375 -0.359375 3.597656 -0.796875 3.453125 C -1.234375 3.304688 -1.476562 2.945312 -1.53125 2.375 C -1.59375 1.507812 -1.570312 0.632812 -1.46875 -0.25 C -1.351562 -1.882812 -1.195312 -3.515625 -1 -5.140625 C -0.863281 -6.203125 -0.726562 -7.265625 -0.59375 -8.328125 C 0.238281 -14.835938 1.007812 -21.363281 1.71875 -27.90625 C 1.769531 -28.445312 1.867188 -28.992188 2.015625 -29.546875 C 2.109375 -29.941406 2.351562 -30.207031 2.75 -30.34375 C 2.925781 -30.382812 3.09375 -30.363281 3.25 -30.28125 C 3.40625 -30.207031 3.484375 -30.070312 3.484375 -29.875 C 3.484375 -29.445312 3.460938 -29.003906 3.421875 -28.546875 C 3.222656 -25.597656 2.941406 -22.582031 2.578125 -19.5 C 2.210938 -16.425781 1.816406 -13.351562 1.390625 -10.28125 C 1.035156 -7.625 0.703125 -5.007812 0.390625 -2.4375 C 0.367188 -2.238281 0.347656 -2.039062 0.328125 -1.84375 C 0.253906 -1.289062 0.1875 -0.742188 0.125 -0.203125 C 0.125 -0.140625 0.140625 -0.0820312 0.171875 -0.03125 C 0.210938 0.0195312 0.253906 0.0507812 0.296875 0.0625 C 0.335938 0.0625 0.390625 0.046875 0.453125 0.015625 C 0.523438 -0.00390625 0.570312 -0.0351562 0.59375 -0.078125 C 0.863281 -0.566406 1.128906 -1.066406 1.390625 -1.578125 C 1.878906 -2.554688 2.367188 -3.539062 2.859375 -4.53125 C 3.847656 -6.488281 4.84375 -8.453125 5.84375 -10.421875 C 6.507812 -11.710938 7.265625 -12.953125 8.109375 -14.140625 C 8.492188 -14.722656 8.957031 -15.234375 9.5 -15.671875 C 10.257812 -16.210938 10.960938 -16.390625 11.609375 -16.203125 C 12.265625 -16.015625 12.757812 -15.484375 13.09375 -14.609375 C 13.351562 -13.796875 13.5 -12.957031 13.53125 -12.09375 C 13.613281 -11.039062 13.632812 -9.984375 13.59375 -8.921875 C 13.550781 -7.859375 13.488281 -6.796875 13.40625 -5.734375 C 13.394531 -5.535156 13.390625 -5.335938 13.390625 -5.140625 C 13.265625 -3.273438 13.125 -1.382812 12.96875 0.53125 C 12.914062 1.382812 12.859375 2.242188 12.796875 3.109375 C 13.023438 2.941406 13.195312 2.78125 13.3125 2.625 C 13.425781 2.46875 13.5 2.328125 13.53125 2.203125 C 13.550781 2.140625 13.582031 2.078125 13.625 2.015625 C 15.269531 -1.890625 17.359375 -5.914062 19.890625 -10.0625 C 22.429688 -14.21875 25.304688 -18.3125 28.515625 -22.34375 C 31.722656 -26.382812 35.179688 -30.203125 38.890625 -33.796875 C 42.597656 -37.390625 46.460938 -40.585938 50.484375 -43.390625 C 54.515625 -46.191406 58.601562 -48.421875 62.75 -50.078125 C 66.894531 -51.742188 71.007812 -52.671875 75.09375 -52.859375 C 79.1875 -53.046875 83.160156 -52.3125 87.015625 -50.65625 C 90.867188 -49 94.503906 -46.265625 97.921875 -42.453125 C 97.953125 -42.398438 97.988281 -42.34375 98.03125 -42.28125 C 98.363281 -41.988281 98.609375 -41.617188 98.765625 -41.171875 C 98.804688 -41.003906 98.773438 -40.859375 98.671875 -40.734375 C 98.578125 -40.609375 98.453125 -40.535156 98.296875 -40.515625 C 98.117188 -40.515625 97.96875 -40.554688 97.84375 -40.640625 C 97.71875 -40.734375 97.597656 -40.859375 97.484375 -41.015625 Z M 97.484375 -41.015625 "/></g></g></g><g fill="#cf7866" fill-opacity="1"><g transform="translate(33.125565, 54.569166)"><g><path d="M 7.625 -5.140625 C 7.113281 -4.628906 6.515625 -4.191406 5.828125 -3.828125 C 5.140625 -3.472656 4.5625 -3.238281 4.09375 -3.125 C 3.632812 -3.007812 3.160156 -2.945312 2.671875 -2.9375 C 1.878906 -2.894531 1.15625 -3 0.5 -3.25 C -0.582031 -3.6875 -0.957031 -4.523438 -0.625 -5.765625 C -0.3125 -6.828125 0.316406 -7.65625 1.265625 -8.25 C 2.222656 -8.851562 3.210938 -9.144531 4.234375 -9.125 C 4.234375 -9.125 4.242188 -9.125 4.265625 -9.125 C 4.523438 -9.144531 4.769531 -9.125 5 -9.0625 C 5.394531 -8.925781 5.644531 -8.695312 5.75 -8.375 C 5.851562 -8.050781 5.78125 -7.691406 5.53125 -7.296875 C 4.957031 -6.429688 4.179688 -5.953125 3.203125 -5.859375 C 2.546875 -5.796875 1.914062 -5.828125 1.3125 -5.953125 C 1.195312 -5.960938 1.09375 -5.925781 1 -5.84375 C 0.914062 -5.769531 0.863281 -5.675781 0.84375 -5.5625 C 0.664062 -4.789062 0.898438 -4.300781 1.546875 -4.09375 C 2.359375 -3.8125 3.195312 -3.8125 4.0625 -4.09375 C 5.0625 -4.40625 6.007812 -4.992188 6.90625 -5.859375 C 7.8125 -6.722656 8.332031 -7.125 8.46875 -7.0625 C 8.613281 -7.007812 8.65625 -6.84375 8.59375 -6.5625 C 8.46875 -6.125 8.144531 -5.648438 7.625 -5.140625 Z M 1.921875 -7.296875 C 1.867188 -7.234375 1.832031 -7.164062 1.8125 -7.09375 C 1.789062 -7.019531 1.820312 -6.953125 1.90625 -6.890625 C 2.21875 -6.710938 2.554688 -6.644531 2.921875 -6.6875 C 3.285156 -6.738281 3.59375 -6.878906 3.84375 -7.109375 C 4.101562 -7.335938 4.21875 -7.613281 4.1875 -7.9375 C 4.15625 -8.0625 4.085938 -8.140625 3.984375 -8.171875 C 3.890625 -8.203125 3.796875 -8.207031 3.703125 -8.1875 C 3.035156 -8.070312 2.441406 -7.773438 1.921875 -7.296875 Z M 1.921875 -7.296875 "/></g></g></g><g fill="#cf7866" fill-opacity="1"><g transform="translate(45.03705, 54.569166)"><g><path d="M 6.484375 -6.390625 C 6.773438 -6.679688 7.019531 -6.84375 7.21875 -6.875 C 7.414062 -6.914062 7.539062 -6.882812 7.59375 -6.78125 C 7.65625 -6.6875 7.617188 -6.554688 7.484375 -6.390625 C 6.703125 -5.441406 5.820312 -4.625 4.84375 -3.9375 C 3.875 -3.25 2.875 -2.847656 1.84375 -2.734375 C 0.8125 -2.628906 0.1875 -3.195312 -0.03125 -4.4375 C -0.1875 -5.65625 0.550781 -8.144531 2.1875 -11.90625 C 3.832031 -15.664062 5.132812 -18.75 6.09375 -21.15625 C 6.175781 -21.363281 6.296875 -21.550781 6.453125 -21.71875 C 6.671875 -21.925781 6.925781 -21.972656 7.21875 -21.859375 C 7.320312 -21.816406 7.421875 -21.742188 7.515625 -21.640625 C 7.609375 -21.546875 7.640625 -21.375 7.609375 -21.125 C 3.378906 -11.101562 1.332031 -5.65625 1.46875 -4.78125 C 1.601562 -3.90625 2.164062 -3.6875 3.15625 -4.125 C 4.15625 -4.570312 4.925781 -5.023438 5.46875 -5.484375 C 6.007812 -5.941406 6.347656 -6.242188 6.484375 -6.390625 Z M 6.484375 -6.390625 "/></g></g></g><g fill="#cf7866" fill-opacity="1"><g transform="translate(55.83673, 54.569166)"><g><path d="M 9.65625 -6.984375 C 9.695312 -6.984375 9.75 -6.96875 9.8125 -6.9375 C 9.875 -6.914062 9.921875 -6.890625 9.953125 -6.859375 C 10.078125 -6.742188 10.09375 -6.601562 10 -6.4375 C 9.875 -6.3125 9.75 -6.195312 9.625 -6.09375 C 8.9375 -5.457031 8.175781 -4.925781 7.34375 -4.5 C 6.019531 -3.832031 4.5625 -3.488281 2.96875 -3.46875 C 2.382812 -3.445312 1.78125 -3.546875 1.15625 -3.765625 C 0.0078125 -4.210938 -0.453125 -5.039062 -0.234375 -6.25 C 0.015625 -7.363281 0.640625 -8.285156 1.640625 -9.015625 C 2.640625 -9.753906 3.710938 -10.078125 4.859375 -9.984375 C 5.078125 -9.941406 5.289062 -9.890625 5.5 -9.828125 C 5.695312 -9.753906 5.84375 -9.640625 5.9375 -9.484375 C 6.039062 -9.328125 6.050781 -9.195312 5.96875 -9.09375 C 5.757812 -8.863281 5.515625 -8.804688 5.234375 -8.921875 C 4.828125 -9.097656 4.453125 -9.144531 4.109375 -9.0625 C 3.765625 -8.988281 3.414062 -8.800781 3.0625 -8.5 C 2.726562 -8.25 2.363281 -7.875 1.96875 -7.375 C 1.570312 -6.882812 1.320312 -6.390625 1.21875 -5.890625 C 1.113281 -5.390625 1.335938 -4.984375 1.890625 -4.671875 C 2.515625 -4.398438 3.15625 -4.332031 3.8125 -4.46875 C 5.4375 -4.800781 6.941406 -5.421875 8.328125 -6.328125 C 8.453125 -6.390625 8.566406 -6.457031 8.671875 -6.53125 C 8.816406 -6.65625 8.96875 -6.753906 9.125 -6.828125 C 9.28125 -6.898438 9.457031 -6.953125 9.65625 -6.984375 Z M 9.65625 -6.984375 "/></g></g></g><g fill="#cf7866" fill-opacity="1"><g transform="translate(68.886822, 54.569166)"><g><path d="M 2.125 -3.171875 L 2.09375 -3.171875 C 0.789062 -3.191406 -0.0625 -3.476562 -0.46875 -4.03125 C -0.875 -4.59375 -0.859375 -5.335938 -0.421875 -6.265625 C -0.046875 -6.972656 0.425781 -7.59375 1 -8.125 C 1.195312 -8.300781 1.398438 -8.441406 1.609375 -8.546875 C 1.816406 -8.648438 2.046875 -8.703125 2.296875 -8.703125 C 2.453125 -8.734375 2.628906 -8.707031 2.828125 -8.625 C 2.890625 -8.601562 2.953125 -8.582031 3.015625 -8.5625 C 3.160156 -8.582031 3.304688 -8.628906 3.453125 -8.703125 C 3.492188 -8.734375 3.546875 -8.757812 3.609375 -8.78125 C 3.898438 -8.894531 4.210938 -8.941406 4.546875 -8.921875 C 4.679688 -8.921875 4.816406 -8.921875 4.953125 -8.921875 C 5.484375 -8.835938 5.878906 -8.613281 6.140625 -8.25 C 6.410156 -7.894531 6.507812 -7.457031 6.4375 -6.9375 C 6.382812 -6.625 6.285156 -6.332031 6.140625 -6.0625 C 5.109375 -4.21875 3.796875 -3.253906 2.203125 -3.171875 Z M 4.25 -7.96875 C 3.539062 -8 2.910156 -7.796875 2.359375 -7.359375 C 1.816406 -6.929688 1.410156 -6.4375 1.140625 -5.875 C 0.867188 -5.3125 0.789062 -4.847656 0.90625 -4.484375 C 1.03125 -4.117188 1.40625 -4.019531 2.03125 -4.1875 C 2.738281 -4.394531 3.363281 -4.789062 3.90625 -5.375 C 4.445312 -5.96875 4.773438 -6.53125 4.890625 -7.0625 C 5.015625 -7.59375 4.800781 -7.894531 4.25 -7.96875 Z M 4.25 -7.96875 "/></g></g></g><g fill="#cf7866" fill-opacity="1"><g transform="translate(80.115152, 54.569166)"><g><path d="M 14 -6.71875 C 14.3125 -6.90625 14.554688 -6.953125 14.734375 -6.859375 C 14.910156 -6.765625 14.84375 -6.488281 14.53125 -6.03125 C 14.144531 -5.5 13.441406 -4.929688 12.421875 -4.328125 C 11.410156 -3.734375 10.515625 -3.472656 9.734375 -3.546875 C 8.960938 -3.628906 8.738281 -4.207031 9.0625 -5.28125 C 9.382812 -6.351562 9.554688 -6.953125 9.578125 -7.078125 C 9.609375 -7.210938 9.585938 -7.285156 9.515625 -7.296875 C 9.441406 -7.316406 9.265625 -7.226562 8.984375 -7.03125 C 8.179688 -6.476562 7.394531 -5.898438 6.625 -5.296875 C 6.300781 -5.046875 5.976562 -4.78125 5.65625 -4.5 C 5.457031 -4.320312 5.25 -4.144531 5.03125 -3.96875 C 5.03125 -3.96875 5.023438 -3.957031 5.015625 -3.9375 C 4.773438 -3.707031 4.488281 -3.550781 4.15625 -3.46875 C 4 -3.425781 3.835938 -3.410156 3.671875 -3.421875 C 3.503906 -3.429688 3.359375 -3.5 3.234375 -3.625 C 3.109375 -3.75 3.0625 -3.882812 3.09375 -4.03125 C 3.125 -4.1875 3.234375 -4.410156 3.421875 -4.703125 C 3.617188 -4.992188 3.828125 -5.316406 4.046875 -5.671875 C 4.273438 -6.023438 4.398438 -6.238281 4.421875 -6.3125 C 4.453125 -6.394531 4.441406 -6.476562 4.390625 -6.5625 C 4.328125 -6.644531 4.257812 -6.671875 4.1875 -6.640625 C 4.113281 -6.609375 3.828125 -6.414062 3.328125 -6.0625 C 2.835938 -5.707031 2.171875 -5.210938 1.328125 -4.578125 C 0.929688 -4.285156 0.546875 -3.984375 0.171875 -3.671875 C 0.078125 -3.578125 -0.0234375 -3.488281 -0.140625 -3.40625 C -0.421875 -3.164062 -0.726562 -3.039062 -1.0625 -3.03125 C -1.300781 -3.007812 -1.476562 -3.0625 -1.59375 -3.1875 C -1.707031 -3.3125 -1.722656 -3.484375 -1.640625 -3.703125 C -1.585938 -3.859375 -1.523438 -4.003906 -1.453125 -4.140625 C -1.398438 -4.203125 -1.367188 -4.265625 -1.359375 -4.328125 C -0.648438 -5.753906 0.046875 -7.1875 0.734375 -8.625 C 0.753906 -8.664062 0.773438 -8.71875 0.796875 -8.78125 C 0.867188 -8.925781 0.945312 -9.070312 1.03125 -9.21875 C 1.25 -9.445312 1.503906 -9.519531 1.796875 -9.4375 C 2.128906 -9.34375 2.257812 -9.148438 2.1875 -8.859375 C 2.019531 -8.410156 1.863281 -7.96875 1.71875 -7.53125 C 1.632812 -7.332031 1.550781 -7.132812 1.46875 -6.9375 C 1.332031 -6.59375 1.289062 -6.367188 1.34375 -6.265625 C 1.394531 -6.171875 1.617188 -6.238281 2.015625 -6.46875 C 2.273438 -6.644531 2.535156 -6.820312 2.796875 -7 C 3.109375 -7.21875 3.414062 -7.414062 3.71875 -7.59375 C 4.164062 -7.875 4.628906 -8.113281 5.109375 -8.3125 C 5.335938 -8.40625 5.570312 -8.472656 5.8125 -8.515625 C 6.0625 -8.566406 6.296875 -8.515625 6.515625 -8.359375 C 6.671875 -8.222656 6.738281 -8.070312 6.71875 -7.90625 C 6.695312 -7.738281 6.648438 -7.578125 6.578125 -7.421875 C 6.453125 -7.128906 6.398438 -6.941406 6.421875 -6.859375 C 6.441406 -6.773438 6.507812 -6.757812 6.625 -6.8125 C 6.75 -6.863281 6.957031 -6.976562 7.25 -7.15625 C 7.539062 -7.332031 7.859375 -7.53125 8.203125 -7.75 C 8.628906 -8.019531 9.078125 -8.28125 9.546875 -8.53125 C 9.941406 -8.789062 10.363281 -8.945312 10.8125 -9 C 11.425781 -9.039062 11.675781 -8.789062 11.5625 -8.25 C 11.457031 -7.71875 11.242188 -7.078125 10.921875 -6.328125 C 10.597656 -5.585938 10.5625 -5.128906 10.8125 -4.953125 C 11.070312 -4.785156 11.640625 -5.015625 12.515625 -5.640625 C 13.390625 -6.273438 13.882812 -6.632812 14 -6.71875 Z M 14 -6.71875 "/></g></g></g><g fill="#cf7866" fill-opacity="1"><g transform="translate(98.402804, 54.569166)"><g><path d="M 7.625 -5.140625 C 7.113281 -4.628906 6.515625 -4.191406 5.828125 -3.828125 C 5.140625 -3.472656 4.5625 -3.238281 4.09375 -3.125 C 3.632812 -3.007812 3.160156 -2.945312 2.671875 -2.9375 C 1.878906 -2.894531 1.15625 -3 0.5 -3.25 C -0.582031 -3.6875 -0.957031 -4.523438 -0.625 -5.765625 C -0.3125 -6.828125 0.316406 -7.65625 1.265625 -8.25 C 2.222656 -8.851562 3.210938 -9.144531 4.234375 -9.125 C 4.234375 -9.125 4.242188 -9.125 4.265625 -9.125 C 4.523438 -9.144531 4.769531 -9.125 5 -9.0625 C 5.394531 -8.925781 5.644531 -8.695312 5.75 -8.375 C 5.851562 -8.050781 5.78125 -7.691406 5.53125 -7.296875 C 4.957031 -6.429688 4.179688 -5.953125 3.203125 -5.859375 C 2.546875 -5.796875 1.914062 -5.828125 1.3125 -5.953125 C 1.195312 -5.960938 1.09375 -5.925781 1 -5.84375 C 0.914062 -5.769531 0.863281 -5.675781 0.84375 -5.5625 C 0.664062 -4.789062 0.898438 -4.300781 1.546875 -4.09375 C 2.359375 -3.8125 3.195312 -3.8125 4.0625 -4.09375 C 5.0625 -4.40625 6.007812 -4.992188 6.90625 -5.859375 C 7.8125 -6.722656 8.332031 -7.125 8.46875 -7.0625 C 8.613281 -7.007812 8.65625 -6.84375 8.59375 -6.5625 C 8.46875 -6.125 8.144531 -5.648438 7.625 -5.140625 Z M 1.921875 -7.296875 C 1.867188 -7.234375 1.832031 -7.164062 1.8125 -7.09375 C 1.789062 -7.019531 1.820312 -6.953125 1.90625 -6.890625 C 2.21875 -6.710938 2.554688 -6.644531 2.921875 -6.6875 C 3.285156 -6.738281 3.59375 -6.878906 3.84375 -7.109375 C 4.101562 -7.335938 4.21875 -7.613281 4.1875 -7.9375 C 4.15625 -8.0625 4.085938 -8.140625 3.984375 -8.171875 C 3.890625 -8.203125 3.796875 -8.207031 3.703125 -8.1875 C 3.035156 -8.070312 2.441406 -7.773438 1.921875 -7.296875 Z M 1.921875 -7.296875 "/></g></g></g><g fill="#cf7866" fill-opacity="1"><g transform="translate(110.314294, 54.569166)"><g/></g></g><g fill="#cf7866" fill-opacity="1"><g transform="translate(124.556568, 54.569166)"><g><path d="M 8.375 -6.46875 C 7.175781 -5.0625 6.003906 -4.019531 4.859375 -3.34375 C 3.710938 -2.675781 2.484375 -2.457031 1.171875 -2.6875 C -0.140625 -2.914062 -0.675781 -3.789062 -0.4375 -5.3125 C -0.28125 -6.082031 -0.0625 -6.832031 0.21875 -7.5625 C 0.90625 -9.269531 1.597656 -10.96875 2.296875 -12.65625 C 2.535156 -13.269531 2.785156 -13.882812 3.046875 -14.5 C 3.109375 -14.632812 3.164062 -14.765625 3.21875 -14.890625 C 3.3125 -15.117188 3.410156 -15.347656 3.515625 -15.578125 C 3.648438 -15.972656 3.492188 -16.179688 3.046875 -16.203125 C 2.785156 -16.203125 2.53125 -16.203125 2.28125 -16.203125 C 2.164062 -16.203125 2.035156 -16.203125 1.890625 -16.203125 C 1.753906 -16.179688 1.613281 -16.160156 1.46875 -16.140625 C 1.238281 -16.117188 1.007812 -16.109375 0.78125 -16.109375 C 0.550781 -16.109375 0.335938 -16.171875 0.140625 -16.296875 C 0.0859375 -16.304688 0.046875 -16.335938 0.015625 -16.390625 C -0.015625 -16.441406 -0.03125 -16.5 -0.03125 -16.5625 C -0.0078125 -16.59375 0.0195312 -16.632812 0.0625 -16.6875 C 0.101562 -16.738281 0.15625 -16.769531 0.21875 -16.78125 C 0.414062 -16.863281 0.617188 -16.921875 0.828125 -16.953125 C 1.378906 -16.984375 1.929688 -17.007812 2.484375 -17.03125 C 2.691406 -17.03125 2.878906 -17.03125 3.046875 -17.03125 C 3.398438 -17.03125 3.660156 -17.039062 3.828125 -17.0625 C 4.003906 -17.09375 4.144531 -17.1875 4.25 -17.34375 C 4.363281 -17.507812 4.492188 -17.757812 4.640625 -18.09375 C 4.710938 -18.269531 4.8125 -18.460938 4.9375 -18.671875 C 5.226562 -19.296875 5.519531 -19.9375 5.8125 -20.59375 C 5.945312 -20.882812 6.085938 -21.171875 6.234375 -21.453125 C 6.347656 -21.722656 6.53125 -21.9375 6.78125 -22.09375 C 7.019531 -22.207031 7.226562 -22.195312 7.40625 -22.0625 C 7.457031 -22.03125 7.5 -21.972656 7.53125 -21.890625 C 7.5625 -21.804688 7.578125 -21.734375 7.578125 -21.671875 C 7.578125 -21.328125 7.488281 -20.984375 7.3125 -20.640625 C 7.28125 -20.566406 7.238281 -20.484375 7.1875 -20.390625 C 7.070312 -20.066406 6.945312 -19.738281 6.8125 -19.40625 C 6.5625 -18.800781 6.316406 -18.179688 6.078125 -17.546875 C 6.015625 -17.429688 6.007812 -17.328125 6.0625 -17.234375 C 6.125 -17.148438 6.21875 -17.109375 6.34375 -17.109375 C 6.96875 -17.085938 7.585938 -17.078125 8.203125 -17.078125 C 8.515625 -17.078125 8.828125 -17.078125 9.140625 -17.078125 C 10.117188 -17.054688 10.507812 -16.921875 10.3125 -16.671875 C 10.175781 -16.515625 10.03125 -16.425781 9.875 -16.40625 C 9.71875 -16.382812 9.5625 -16.382812 9.40625 -16.40625 C 9.300781 -16.40625 9.203125 -16.40625 9.109375 -16.40625 C 8.109375 -16.34375 7.117188 -16.304688 6.140625 -16.296875 C 5.679688 -16.296875 5.375 -16.085938 5.21875 -15.671875 C 5.0625 -15.273438 4.90625 -14.882812 4.75 -14.5 C 4.53125 -13.976562 4.320312 -13.472656 4.125 -12.984375 C 3.925781 -12.515625 3.726562 -12.046875 3.53125 -11.578125 C 3.019531 -10.378906 2.53125 -9.175781 2.0625 -7.96875 C 1.769531 -7.1875 1.535156 -6.382812 1.359375 -5.5625 C 0.984375 -4.070312 1.5625 -3.5 3.09375 -3.84375 C 4.59375 -4.195312 6.164062 -5.28125 7.8125 -7.09375 C 8.519531 -7.539062 8.707031 -7.332031 8.375 -6.46875 Z M 8.375 -6.46875 "/></g></g></g><g fill="#cf7866" fill-opacity="1"><g transform="translate(136.280525, 54.569166)"><g><path d="M 2.125 -3.171875 L 2.09375 -3.171875 C 0.789062 -3.191406 -0.0625 -3.476562 -0.46875 -4.03125 C -0.875 -4.59375 -0.859375 -5.335938 -0.421875 -6.265625 C -0.046875 -6.972656 0.425781 -7.59375 1 -8.125 C 1.195312 -8.300781 1.398438 -8.441406 1.609375 -8.546875 C 1.816406 -8.648438 2.046875 -8.703125 2.296875 -8.703125 C 2.453125 -8.734375 2.628906 -8.707031 2.828125 -8.625 C 2.890625 -8.601562 2.953125 -8.582031 3.015625 -8.5625 C 3.160156 -8.582031 3.304688 -8.628906 3.453125 -8.703125 C 3.492188 -8.734375 3.546875 -8.757812 3.609375 -8.78125 C 3.898438 -8.894531 4.210938 -8.941406 4.546875 -8.921875 C 4.679688 -8.921875 4.816406 -8.921875 4.953125 -8.921875 C 5.484375 -8.835938 5.878906 -8.613281 6.140625 -8.25 C 6.410156 -7.894531 6.507812 -7.457031 6.4375 -6.9375 C 6.382812 -6.625 6.285156 -6.332031 6.140625 -6.0625 C 5.109375 -4.21875 3.796875 -3.253906 2.203125 -3.171875 Z M 4.25 -7.96875 C 3.539062 -8 2.910156 -7.796875 2.359375 -7.359375 C 1.816406 -6.929688 1.410156 -6.4375 1.140625 -5.875 C 0.867188 -5.3125 0.789062 -4.847656 0.90625 -4.484375 C 1.03125 -4.117188 1.40625 -4.019531 2.03125 -4.1875 C 2.738281 -4.394531 3.363281 -4.789062 3.90625 -5.375 C 4.445312 -5.96875 4.773438 -6.53125 4.890625 -7.0625 C 5.015625 -7.59375 4.800781 -7.894531 4.25 -7.96875 Z M 4.25 -7.96875 "/></g></g></g><g fill="#cf7866" fill-opacity="1"><g transform="translate(147.50886, 54.569166)"><g/></g></g><g fill="#cf7866" fill-opacity="1"><g transform="translate(161.751134, 54.569166)"><g><path d="M 74.78125 -35.0625 C 74.550781 -35.007812 74.34375 -35.015625 74.15625 -35.078125 C 73.96875 -35.148438 73.789062 -35.234375 73.625 -35.328125 C 73.550781 -35.359375 73.488281 -35.398438 73.4375 -35.453125 C 71.15625 -36.679688 68.738281 -37.601562 66.1875 -38.21875 C 59.539062 -39.8125 52.769531 -39.148438 45.875 -36.234375 C 43.351562 -35.171875 40.9375 -33.894531 38.625 -32.40625 C 36.320312 -30.914062 34.070312 -29.285156 31.875 -27.515625 C 28.332031 -24.648438 25.070312 -21.507812 22.09375 -18.09375 C 19.113281 -14.6875 16.367188 -11.050781 13.859375 -7.1875 C 12.953125 -5.8125 12.078125 -4.414062 11.234375 -3 C 11.222656 -2.957031 11.203125 -2.914062 11.171875 -2.875 C 10.523438 -1.875 10 -0.8125 9.59375 0.3125 C 9.394531 0.832031 9.148438 1.332031 8.859375 1.8125 C 8.492188 2.4375 8 2.671875 7.375 2.515625 C 7.019531 2.429688 6.875 2.203125 6.9375 1.828125 C 6.976562 1.554688 7.0625 1.296875 7.1875 1.046875 C 7.863281 -0.273438 8.457031 -1.613281 8.96875 -2.96875 C 9.476562 -4.320312 9.957031 -5.6875 10.40625 -7.0625 C 10.519531 -7.414062 10.640625 -7.757812 10.765625 -8.09375 C 13.453125 -15.96875 15.945312 -23.898438 18.25 -31.890625 C 18.289062 -32.054688 18.320312 -32.226562 18.34375 -32.40625 C 18.34375 -32.488281 18.351562 -32.578125 18.375 -32.671875 C 18.15625 -32.660156 17.988281 -32.59375 17.875 -32.46875 C 17.757812 -32.34375 17.660156 -32.207031 17.578125 -32.0625 C 17.554688 -32 17.523438 -31.941406 17.484375 -31.890625 C 17.347656 -31.691406 17.222656 -31.476562 17.109375 -31.25 C 15.804688 -29.21875 14.503906 -27.171875 13.203125 -25.109375 C 11.191406 -21.804688 9.171875 -18.5 7.140625 -15.1875 C 4.210938 -10.414062 1.265625 -5.632812 -1.703125 -0.84375 C -2.347656 0.21875 -3.035156 1.25 -3.765625 2.25 C -3.941406 2.507812 -4.109375 2.753906 -4.265625 2.984375 C -4.535156 3.441406 -4.914062 3.71875 -5.40625 3.8125 C -5.550781 3.832031 -5.679688 3.828125 -5.796875 3.796875 C -5.910156 3.765625 -5.988281 3.691406 -6.03125 3.578125 C -6.070312 3.492188 -6.070312 3.398438 -6.03125 3.296875 C -5.988281 3.191406 -5.9375 3.097656 -5.875 3.015625 C 1.195312 -8.554688 8.285156 -20.117188 15.390625 -31.671875 C 16.046875 -32.703125 16.734375 -33.707031 17.453125 -34.6875 C 17.617188 -34.894531 17.769531 -35.109375 17.90625 -35.328125 C 18.3125 -35.929688 18.847656 -36.320312 19.515625 -36.5 C 19.929688 -36.582031 20.253906 -36.523438 20.484375 -36.328125 C 20.722656 -36.128906 20.832031 -35.8125 20.8125 -35.375 C 20.695312 -34.101562 20.445312 -32.84375 20.0625 -31.59375 C 18.113281 -24.863281 16.023438 -18.179688 13.796875 -11.546875 C 13.773438 -11.460938 13.75 -11.390625 13.71875 -11.328125 C 13.632812 -11.140625 13.578125 -10.945312 13.546875 -10.75 C 13.515625 -10.550781 13.554688 -10.332031 13.671875 -10.09375 C 13.835938 -10.3125 14 -10.519531 14.15625 -10.71875 C 14.488281 -11.125 14.800781 -11.535156 15.09375 -11.953125 C 18.59375 -16.910156 22.582031 -21.398438 27.0625 -25.421875 C 29.632812 -27.734375 32.300781 -29.867188 35.0625 -31.828125 C 37.832031 -33.785156 40.738281 -35.460938 43.78125 -36.859375 C 50.070312 -39.671875 56.382812 -40.710938 62.71875 -39.984375 C 66.726562 -39.492188 70.460938 -38.332031 73.921875 -36.5 C 74.003906 -36.46875 74.09375 -36.429688 74.1875 -36.390625 C 74.375 -36.304688 74.546875 -36.210938 74.703125 -36.109375 C 74.859375 -36.015625 74.984375 -35.867188 75.078125 -35.671875 C 75.097656 -35.640625 75.109375 -35.585938 75.109375 -35.515625 C 75.109375 -35.453125 75.097656 -35.390625 75.078125 -35.328125 C 75.046875 -35.265625 75.003906 -35.207031 74.953125 -35.15625 C 74.898438 -35.113281 74.84375 -35.082031 74.78125 -35.0625 Z M 74.78125 -35.0625 "/></g></g></g><g fill="#cf7866" fill-opacity="1"><g transform="translate(185.289753, 54.569166)"><g><path d="M 5.328125 -5.640625 C 4.847656 -5.078125 4.28125 -4.554688 3.625 -4.078125 C 2.976562 -3.609375 2.242188 -3.289062 1.421875 -3.125 C 0.597656 -2.957031 -0.0351562 -3.015625 -0.484375 -3.296875 C -0.941406 -3.585938 -1.035156 -4.226562 -0.765625 -5.21875 C -0.410156 -6.226562 0.078125 -7.195312 0.703125 -8.125 C 0.847656 -8.3125 1.054688 -8.445312 1.328125 -8.53125 C 1.523438 -8.570312 1.695312 -8.535156 1.84375 -8.421875 C 1.988281 -8.316406 2.046875 -8.179688 2.015625 -8.015625 C 1.878906 -7.691406 1.726562 -7.367188 1.5625 -7.046875 C 1.40625 -6.722656 1.300781 -6.515625 1.25 -6.421875 C 0.9375 -5.847656 0.71875 -5.25 0.59375 -4.625 C 0.59375 -4.269531 1.066406 -4.25 2.015625 -4.5625 C 2.972656 -4.875 3.898438 -5.445312 4.796875 -6.28125 C 5.703125 -7.113281 6.132812 -7.359375 6.09375 -7.015625 C 6.0625 -6.671875 5.804688 -6.210938 5.328125 -5.640625 Z M 2.984375 -10.125 C 2.941406 -10.09375 2.847656 -10.050781 2.703125 -10 C 2.566406 -9.945312 2.421875 -9.910156 2.265625 -9.890625 C 2.109375 -9.867188 1.984375 -9.894531 1.890625 -9.96875 C 1.804688 -10.039062 1.804688 -10.179688 1.890625 -10.390625 C 2.035156 -10.765625 2.1875 -11.09375 2.34375 -11.375 C 2.5 -11.65625 2.703125 -11.96875 2.953125 -12.3125 C 3.109375 -12.46875 3.28125 -12.550781 3.46875 -12.5625 C 3.65625 -12.570312 3.8125 -12.519531 3.9375 -12.40625 C 4.0625 -12.300781 4.097656 -12.148438 4.046875 -11.953125 C 3.847656 -11.242188 3.492188 -10.632812 2.984375 -10.125 Z M 2.984375 -10.125 "/></g></g></g><g fill="#cf7866" fill-opacity="1"><g transform="translate(194.629344, 54.569166)"><g><path d="M 5.828125 -20.625 C 6.296875 -20.726562 6.53125 -20.550781 6.53125 -20.09375 C 6.570312 -19.6875 6.535156 -19.273438 6.421875 -18.859375 C 6.304688 -18.484375 6.144531 -18.148438 5.9375 -17.859375 C 5.726562 -17.578125 5.488281 -17.320312 5.21875 -17.09375 C 5.070312 -16.957031 4.925781 -16.882812 4.78125 -16.875 C 4.632812 -16.863281 4.5 -16.894531 4.375 -16.96875 C 4.226562 -17.070312 4.289062 -17.242188 4.5625 -17.484375 C 5.09375 -18.203125 5.253906 -18.765625 5.046875 -19.171875 C 4.847656 -19.578125 4.847656 -19.90625 5.046875 -20.15625 C 5.253906 -20.40625 5.515625 -20.5625 5.828125 -20.625 Z M 5.828125 -20.625 "/></g></g></g><g fill="#cf7866" fill-opacity="1"><g transform="translate(206.447074, 54.569166)"><g><path d="M 6.484375 -6.796875 C 5.078125 -6.265625 4.0625 -5.832031 3.4375 -5.5 C 2.976562 -5.28125 2.710938 -5.097656 2.640625 -4.953125 C 2.578125 -4.804688 2.628906 -4.535156 2.796875 -4.140625 C 2.796875 -4.117188 2.8125 -4.09375 2.84375 -4.0625 C 3.039062 -3.582031 3.15625 -3.085938 3.1875 -2.578125 C 3.25 -1.554688 2.375 -0.835938 0.5625 -0.421875 C -1.238281 -0.015625 -2.445312 -0.00390625 -3.0625 -0.390625 C -3.675781 -0.773438 -3.863281 -1.257812 -3.625 -1.84375 C -3.382812 -2.4375 -2.769531 -3.035156 -1.78125 -3.640625 C -0.789062 -4.253906 -0.128906 -4.691406 0.203125 -4.953125 C 0.535156 -5.222656 0.640625 -5.523438 0.515625 -5.859375 C 0.460938 -5.972656 0.410156 -6.085938 0.359375 -6.203125 C 0.242188 -6.484375 0.125 -6.769531 0 -7.0625 C -0.226562 -7.59375 -0.328125 -8.117188 -0.296875 -8.640625 C -0.265625 -9.160156 -0.078125 -9.597656 0.265625 -9.953125 C 0.617188 -10.304688 1.171875 -10.492188 1.921875 -10.515625 C 2.335938 -10.535156 2.707031 -10.476562 3.03125 -10.34375 C 3.363281 -10.21875 3.628906 -9.976562 3.828125 -9.625 C 3.992188 -9.382812 3.945312 -9.164062 3.6875 -8.96875 C 3.519531 -8.84375 3.335938 -8.828125 3.140625 -8.921875 C 3.015625 -8.972656 2.890625 -9.050781 2.765625 -9.15625 C 2.765625 -9.175781 2.765625 -9.1875 2.765625 -9.1875 C 2.710938 -9.226562 2.664062 -9.265625 2.625 -9.296875 C 2.570312 -9.378906 2.515625 -9.441406 2.453125 -9.484375 C 2.222656 -9.648438 1.988281 -9.695312 1.75 -9.625 C 1.507812 -9.5625 1.332031 -9.382812 1.21875 -9.09375 C 1.132812 -8.863281 1.09375 -8.628906 1.09375 -8.390625 C 1.113281 -8.085938 1.179688 -7.800781 1.296875 -7.53125 C 1.378906 -7.363281 1.453125 -7.207031 1.515625 -7.0625 C 1.660156 -6.664062 1.78125 -6.394531 1.875 -6.25 C 1.976562 -6.101562 2.097656 -6.039062 2.234375 -6.0625 C 2.378906 -6.082031 3.648438 -6.535156 6.046875 -7.421875 C 6.554688 -7.585938 6.703125 -7.378906 6.484375 -6.796875 Z M 0.6875 -1.671875 C 1.3125 -1.890625 1.570312 -2.3125 1.46875 -2.9375 C 1.46875 -2.976562 1.460938 -3.023438 1.453125 -3.078125 C 1.410156 -3.421875 1.335938 -3.679688 1.234375 -3.859375 C 1.128906 -4.046875 0.890625 -4.039062 0.515625 -3.84375 C -0.421875 -3.3125 -1.28125 -2.695312 -2.0625 -2 C -2.113281 -1.9375 -2.160156 -1.878906 -2.203125 -1.828125 C -2.203125 -1.828125 -2.210938 -1.8125 -2.234375 -1.78125 C -2.285156 -1.707031 -2.289062 -1.625 -2.25 -1.53125 C -2.21875 -1.445312 -2.140625 -1.40625 -2.015625 -1.40625 C -1.097656 -1.257812 -0.195312 -1.347656 0.6875 -1.671875 Z M 0.6875 -1.671875 "/></g></g></g><g fill="#cf7866" fill-opacity="1"><g transform="translate(216.49661, 54.569166)"><g/></g></g><g fill="#cf7866" fill-opacity="1"><g transform="translate(230.738873, 54.569166)"><g><path d="M 95.609375 8.90625 C 95.648438 8.925781 95.675781 8.96875 95.6875 9.03125 C 95.695312 9.09375 95.703125 9.140625 95.703125 9.171875 C 95.679688 9.234375 95.648438 9.28125 95.609375 9.3125 C 95.578125 9.351562 95.539062 9.390625 95.5 9.421875 C 95.320312 9.492188 95.144531 9.519531 94.96875 9.5 C 94.789062 9.5 94.625 9.488281 94.46875 9.46875 C 94.382812 9.445312 94.316406 9.4375 94.265625 9.4375 C 93.429688 9.363281 92.601562 9.273438 91.78125 9.171875 C 89.851562 8.972656 87.9375 8.785156 86.03125 8.609375 C 82.332031 8.285156 78.632812 7.984375 74.9375 7.703125 C 69.738281 7.347656 64.539062 7.070312 59.34375 6.875 C 55.601562 6.738281 51.867188 6.640625 48.140625 6.578125 C 47.722656 6.554688 47.304688 6.546875 46.890625 6.546875 C 46.460938 6.546875 46.039062 6.539062 45.625 6.53125 C 43.09375 6.46875 40.554688 6.4375 38.015625 6.4375 L 37.96875 6.4375 C 36.476562 6.4375 34.992188 6.46875 33.515625 6.53125 C 32.960938 6.539062 32.425781 6.546875 31.90625 6.546875 C 31.226562 6.566406 30.546875 6.695312 29.859375 6.9375 C 24.703125 8.738281 19.492188 10.066406 14.234375 10.921875 C 12.722656 11.171875 11.210938 11.378906 9.703125 11.546875 C 8.191406 11.710938 6.675781 11.796875 5.15625 11.796875 C 4.664062 11.796875 4.175781 11.789062 3.6875 11.78125 C 2.945312 11.78125 2.234375 11.679688 1.546875 11.484375 C 1.265625 11.421875 1.003906 11.332031 0.765625 11.21875 C 0.546875 11.132812 0.363281 11.019531 0.21875 10.875 C 0.0703125 10.726562 0.0078125 10.523438 0.03125 10.265625 C 0.0703125 10.015625 0.175781 9.796875 0.34375 9.609375 C 0.519531 9.429688 0.722656 9.285156 0.953125 9.171875 C 1.640625 8.785156 2.363281 8.523438 3.125 8.390625 C 3.5 8.285156 3.882812 8.195312 4.28125 8.125 C 5.550781 7.820312 6.832031 7.570312 8.125 7.375 C 13.320312 6.613281 18.492188 6.113281 23.640625 5.875 C 23.953125 5.851562 24.257812 5.832031 24.5625 5.8125 C 26.144531 5.726562 27.734375 5.660156 29.328125 5.609375 C 29.898438 5.597656 30.472656 5.492188 31.046875 5.296875 C 33.003906 4.554688 34.9375 3.734375 36.84375 2.828125 C 38.75 1.929688 40.613281 0.910156 42.4375 -0.234375 C 43.957031 -1.148438 45.359375 -2.238281 46.640625 -3.5 C 47.359375 -4.1875 47.945312 -4.960938 48.40625 -5.828125 C 49.007812 -7.085938 48.894531 -8.175781 48.0625 -9.09375 C 47.476562 -9.695312 46.785156 -10.171875 45.984375 -10.515625 C 44.921875 -11.003906 43.8125 -11.394531 42.65625 -11.6875 C 41.507812 -11.988281 40.347656 -12.242188 39.171875 -12.453125 C 35.828125 -13.003906 32.421875 -13.34375 28.953125 -13.46875 C 28.828125 -13.46875 28.707031 -13.46875 28.59375 -13.46875 C 28.457031 -13.46875 28.316406 -13.46875 28.171875 -13.46875 C 27.878906 -13.414062 27.65625 -13.234375 27.5 -12.921875 C 27.425781 -12.796875 27.359375 -12.671875 27.296875 -12.546875 C 27.140625 -12.242188 26.984375 -11.945312 26.828125 -11.65625 C 25.585938 -9.164062 24.359375 -6.679688 23.140625 -4.203125 C 22.117188 -2.097656 21.085938 -0.00390625 20.046875 2.078125 C 20.023438 2.160156 20 2.226562 19.96875 2.28125 C 19.84375 2.539062 19.703125 2.785156 19.546875 3.015625 C 19.367188 3.210938 19.164062 3.289062 18.9375 3.25 C 18.789062 3.269531 18.648438 3.265625 18.515625 3.234375 C 18.273438 3.109375 18.195312 2.921875 18.28125 2.671875 C 18.488281 2.109375 18.722656 1.566406 18.984375 1.046875 C 20.535156 -2.253906 22.085938 -5.546875 23.640625 -8.828125 C 24.148438 -9.867188 24.648438 -10.910156 25.140625 -11.953125 C 25.179688 -12.046875 25.222656 -12.132812 25.265625 -12.21875 C 25.378906 -12.457031 25.488281 -12.691406 25.59375 -12.921875 C 25.726562 -13.285156 25.617188 -13.472656 25.265625 -13.484375 C 25.085938 -13.503906 24.910156 -13.515625 24.734375 -13.515625 C 24.503906 -13.535156 24.273438 -13.554688 24.046875 -13.578125 C 24.015625 -13.578125 23.96875 -13.578125 23.90625 -13.578125 C 23.632812 -13.597656 23.378906 -13.640625 23.140625 -13.703125 C 22.898438 -13.773438 22.757812 -13.957031 22.71875 -14.25 C 22.71875 -14.582031 22.832031 -14.828125 23.0625 -14.984375 C 23.289062 -15.148438 23.539062 -15.28125 23.8125 -15.375 C 23.914062 -15.414062 24.007812 -15.441406 24.09375 -15.453125 C 24.832031 -15.765625 25.585938 -16.046875 26.359375 -16.296875 C 26.429688 -16.328125 26.519531 -16.351562 26.625 -16.375 C 27.207031 -16.550781 27.648438 -16.925781 27.953125 -17.5 C 29.265625 -19.988281 30.582031 -22.472656 31.90625 -24.953125 C 32.34375 -25.816406 32.800781 -26.691406 33.28125 -27.578125 C 33.34375 -27.703125 33.398438 -27.820312 33.453125 -27.9375 C 33.566406 -28.1875 33.707031 -28.429688 33.875 -28.671875 C 34.0625 -28.960938 34.3125 -29.078125 34.625 -29.015625 C 34.769531 -29.035156 34.910156 -29.023438 35.046875 -28.984375 C 35.335938 -28.859375 35.425781 -28.632812 35.3125 -28.3125 C 35.3125 -28.289062 35.300781 -28.28125 35.28125 -28.28125 C 35.0625 -27.613281 34.796875 -26.96875 34.484375 -26.34375 C 33.710938 -24.832031 32.925781 -23.316406 32.125 -21.796875 C 31.875 -21.285156 31.613281 -20.773438 31.34375 -20.265625 C 31.195312 -20.003906 31.054688 -19.75 30.921875 -19.5 C 30.691406 -19.0625 30.460938 -18.625 30.234375 -18.1875 C 30.234375 -18.1875 30.222656 -18.171875 30.203125 -18.140625 C 30.171875 -18.066406 30.144531 -17.988281 30.125 -17.90625 C 30.101562 -17.832031 30.140625 -17.773438 30.234375 -17.734375 C 30.296875 -17.710938 30.359375 -17.691406 30.421875 -17.671875 L 30.484375 -17.703125 C 30.597656 -17.722656 30.726562 -17.753906 30.875 -17.796875 C 30.90625 -17.804688 30.9375 -17.820312 30.96875 -17.84375 C 35.28125 -19.195312 39.582031 -20.601562 43.875 -22.0625 C 48.164062 -23.519531 52.4375 -25.082031 56.6875 -26.75 C 56.78125 -26.789062 56.867188 -26.816406 56.953125 -26.828125 C 58.242188 -27.367188 59.53125 -27.910156 60.8125 -28.453125 C 62.101562 -28.992188 63.378906 -29.578125 64.640625 -30.203125 C 65.578125 -30.648438 66.460938 -31.1875 67.296875 -31.8125 C 69.066406 -33.25 69.140625 -34.535156 67.515625 -35.671875 C 66.765625 -36.191406 65.9375 -36.585938 65.03125 -36.859375 C 64.132812 -37.128906 63.21875 -37.320312 62.28125 -37.4375 C 60.039062 -37.78125 57.773438 -37.953125 55.484375 -37.953125 L 55.4375 -37.953125 C 53.21875 -37.929688 50.976562 -37.820312 48.71875 -37.625 C 43.707031 -37.1875 38.707031 -36.34375 33.71875 -35.09375 C 29.125 -33.957031 24.613281 -32.40625 20.1875 -30.4375 C 19.03125 -29.925781 17.898438 -29.347656 16.796875 -28.703125 C 16.484375 -28.503906 16.171875 -28.320312 15.859375 -28.15625 C 15.679688 -28.082031 15.515625 -28.066406 15.359375 -28.109375 C 15.140625 -28.066406 14.960938 -28.125 14.828125 -28.28125 C 14.734375 -28.425781 14.726562 -28.554688 14.8125 -28.671875 C 14.90625 -28.785156 15.019531 -28.882812 15.15625 -28.96875 C 16.101562 -29.632812 17.082031 -30.191406 18.09375 -30.640625 C 18.113281 -30.640625 18.132812 -30.648438 18.15625 -30.671875 C 22.320312 -32.628906 26.585938 -34.195312 30.953125 -35.375 C 37.234375 -37.113281 43.550781 -38.195312 49.90625 -38.625 C 51.875 -38.769531 53.828125 -38.84375 55.765625 -38.84375 C 57.890625 -38.851562 59.988281 -38.742188 62.0625 -38.515625 C 64.03125 -38.316406 65.898438 -37.863281 67.671875 -37.15625 C 68.503906 -36.84375 69.222656 -36.375 69.828125 -35.75 C 70.335938 -35.1875 70.5625 -34.570312 70.5 -33.90625 C 70.445312 -33.25 70.125 -32.59375 69.53125 -31.9375 C 68.78125 -31.1875 67.945312 -30.566406 67.03125 -30.078125 C 65.914062 -29.453125 64.773438 -28.882812 63.609375 -28.375 C 62.453125 -27.863281 61.28125 -27.375 60.09375 -26.90625 C 60.0625 -26.882812 60.015625 -26.859375 59.953125 -26.828125 C 55.847656 -25.140625 51.707031 -23.570312 47.53125 -22.125 C 43.351562 -20.6875 39.160156 -19.300781 34.953125 -17.96875 C 34.242188 -17.738281 33.539062 -17.5 32.84375 -17.25 C 31.851562 -16.925781 30.867188 -16.609375 29.890625 -16.296875 C 29.460938 -16.191406 29.117188 -15.953125 28.859375 -15.578125 C 28.640625 -15.222656 28.539062 -14.945312 28.5625 -14.75 C 28.59375 -14.550781 28.820312 -14.441406 29.25 -14.421875 C 30.363281 -14.390625 31.476562 -14.332031 32.59375 -14.25 C 32.675781 -14.25 32.75 -14.25 32.8125 -14.25 C 34.925781 -14.113281 37.015625 -13.890625 39.078125 -13.578125 C 41.140625 -13.265625 43.15625 -12.800781 45.125 -12.1875 C 45.96875 -11.914062 46.785156 -11.601562 47.578125 -11.25 C 48.097656 -11.007812 48.597656 -10.71875 49.078125 -10.375 C 51.097656 -8.800781 51.242188 -6.820312 49.515625 -4.4375 C 48.941406 -3.644531 48.285156 -2.929688 47.546875 -2.296875 C 45.710938 -0.722656 43.75 0.632812 41.65625 1.78125 C 39.84375 2.78125 38 3.707031 36.125 4.5625 C 35.914062 4.625 35.695312 4.71875 35.46875 4.84375 C 35.34375 4.90625 35.210938 4.96875 35.078125 5.03125 C 35.191406 5.207031 35.296875 5.3125 35.390625 5.34375 C 35.492188 5.382812 35.609375 5.394531 35.734375 5.375 C 35.734375 5.375 35.738281 5.375 35.75 5.375 C 36.082031 5.394531 36.40625 5.40625 36.71875 5.40625 L 36.765625 5.40625 C 36.972656 5.40625 37.1875 5.394531 37.40625 5.375 C 38.382812 5.375 39.367188 5.375 40.359375 5.375 C 46.179688 5.394531 51.984375 5.523438 57.765625 5.765625 C 64.054688 5.972656 70.316406 6.351562 76.546875 6.90625 C 78.535156 7.082031 80.519531 7.257812 82.5 7.4375 C 84.894531 7.632812 87.285156 7.835938 89.671875 8.046875 C 91.054688 8.191406 92.441406 8.363281 93.828125 8.5625 C 94.148438 8.59375 94.492188 8.632812 94.859375 8.6875 C 95.109375 8.71875 95.359375 8.789062 95.609375 8.90625 Z M 26.328125 -14.640625 C 26.359375 -14.660156 26.394531 -14.695312 26.4375 -14.75 C 26.476562 -14.8125 26.507812 -14.859375 26.53125 -14.890625 C 26.53125 -14.941406 26.519531 -14.972656 26.5 -14.984375 C 26.476562 -15.003906 26.445312 -15.035156 26.40625 -15.078125 C 26.40625 -15.078125 26.394531 -15.085938 26.375 -15.109375 C 26.164062 -15.066406 25.972656 -14.960938 25.796875 -14.796875 C 25.753906 -14.742188 25.738281 -14.691406 25.75 -14.640625 C 25.757812 -14.597656 25.796875 -14.578125 25.859375 -14.578125 C 26.003906 -14.578125 26.160156 -14.597656 26.328125 -14.640625 Z M 24.859375 7.359375 C 24.890625 7.328125 24.925781 7.3125 24.96875 7.3125 C 25.039062 7.289062 25.117188 7.253906 25.203125 7.203125 C 25.285156 7.160156 25.34375 7.09375 25.375 7 C 25.34375 6.914062 25.304688 6.863281 25.265625 6.84375 C 25.242188 6.84375 25.222656 6.84375 25.203125 6.84375 C 20.453125 7.0625 15.6875 7.460938 10.90625 8.046875 C 8.550781 8.328125 6.203125 8.769531 3.859375 9.375 C 3.804688 9.40625 3.75 9.425781 3.6875 9.4375 C 3.269531 9.519531 2.898438 9.6875 2.578125 9.9375 C 2.492188 10 2.441406 10.066406 2.421875 10.140625 C 2.398438 10.222656 2.4375 10.296875 2.53125 10.359375 C 2.726562 10.441406 2.9375 10.507812 3.15625 10.5625 C 3.914062 10.695312 4.691406 10.765625 5.484375 10.765625 C 6.148438 10.765625 6.816406 10.734375 7.484375 10.671875 C 13.296875 10.179688 19.085938 9.078125 24.859375 7.359375 Z M 24.859375 7.359375 "/></g></g></g><g fill="#cf7866" fill-opacity="1"><g transform="translate(288.02028, 54.569166)"><g><path d="M 7.625 -5.140625 C 7.113281 -4.628906 6.515625 -4.191406 5.828125 -3.828125 C 5.140625 -3.472656 4.5625 -3.238281 4.09375 -3.125 C 3.632812 -3.007812 3.160156 -2.945312 2.671875 -2.9375 C 1.878906 -2.894531 1.15625 -3 0.5 -3.25 C -0.582031 -3.6875 -0.957031 -4.523438 -0.625 -5.765625 C -0.3125 -6.828125 0.316406 -7.65625 1.265625 -8.25 C 2.222656 -8.851562 3.210938 -9.144531 4.234375 -9.125 C 4.234375 -9.125 4.242188 -9.125 4.265625 -9.125 C 4.523438 -9.144531 4.769531 -9.125 5 -9.0625 C 5.394531 -8.925781 5.644531 -8.695312 5.75 -8.375 C 5.851562 -8.050781 5.78125 -7.691406 5.53125 -7.296875 C 4.957031 -6.429688 4.179688 -5.953125 3.203125 -5.859375 C 2.546875 -5.796875 1.914062 -5.828125 1.3125 -5.953125 C 1.195312 -5.960938 1.09375 -5.925781 1 -5.84375 C 0.914062 -5.769531 0.863281 -5.675781 0.84375 -5.5625 C 0.664062 -4.789062 0.898438 -4.300781 1.546875 -4.09375 C 2.359375 -3.8125 3.195312 -3.8125 4.0625 -4.09375 C 5.0625 -4.40625 6.007812 -4.992188 6.90625 -5.859375 C 7.8125 -6.722656 8.332031 -7.125 8.46875 -7.0625 C 8.613281 -7.007812 8.65625 -6.84375 8.59375 -6.5625 C 8.46875 -6.125 8.144531 -5.648438 7.625 -5.140625 Z M 1.921875 -7.296875 C 1.867188 -7.234375 1.832031 -7.164062 1.8125 -7.09375 C 1.789062 -7.019531 1.820312 -6.953125 1.90625 -6.890625 C 2.21875 -6.710938 2.554688 -6.644531 2.921875 -6.6875 C 3.285156 -6.738281 3.59375 -6.878906 3.84375 -7.109375 C 4.101562 -7.335938 4.21875 -7.613281 4.1875 -7.9375 C 4.15625 -8.0625 4.085938 -8.140625 3.984375 -8.171875 C 3.890625 -8.203125 3.796875 -8.207031 3.703125 -8.1875 C 3.035156 -8.070312 2.441406 -7.773438 1.921875 -7.296875 Z M 1.921875 -7.296875 "/></g></g></g><g fill="#cf7866" fill-opacity="1"><g transform="translate(299.931771, 54.569166)"><g><path d="M 9.71875 -6.8125 C 9.925781 -6.695312 9.941406 -6.410156 9.765625 -5.953125 C 9.503906 -5.609375 9.226562 -5.289062 8.9375 -5 C 8.644531 -4.707031 8.320312 -4.441406 7.96875 -4.203125 C 7.945312 -4.203125 7.9375 -4.195312 7.9375 -4.1875 C 7.695312 -4.019531 7.445312 -3.878906 7.1875 -3.765625 C 5.0625 -2.992188 3.972656 -3.445312 3.921875 -5.125 C 3.054688 -4.375 2.476562 -3.910156 2.1875 -3.734375 C 1.476562 -3.316406 0.710938 -3.128906 -0.109375 -3.171875 C -0.710938 -3.210938 -1.125 -3.398438 -1.34375 -3.734375 C -1.5625 -4.066406 -1.539062 -4.519531 -1.28125 -5.09375 C -0.894531 -5.988281 -0.335938 -6.789062 0.390625 -7.5 C 1.234375 -8.289062 2.175781 -8.921875 3.21875 -9.390625 C 3.769531 -9.671875 4.347656 -9.78125 4.953125 -9.71875 C 5.566406 -9.675781 5.9375 -9.332031 6.0625 -8.6875 C 6.113281 -8.488281 6.0625 -8.3125 5.90625 -8.15625 C 5.707031 -7.976562 5.476562 -7.9375 5.21875 -8.03125 C 5.207031 -8.03125 5.1875 -8.035156 5.15625 -8.046875 C 5.125 -8.054688 5.097656 -8.070312 5.078125 -8.09375 C 4.816406 -8.445312 4.554688 -8.59375 4.296875 -8.53125 C 4.035156 -8.476562 3.753906 -8.363281 3.453125 -8.1875 C 2.078125 -7.382812 1.054688 -6.265625 0.390625 -4.828125 C 0.347656 -4.765625 0.320312 -4.691406 0.3125 -4.609375 C 0.3125 -4.535156 0.335938 -4.476562 0.390625 -4.4375 C 0.546875 -4.382812 0.722656 -4.394531 0.921875 -4.46875 C 1.117188 -4.539062 1.316406 -4.648438 1.515625 -4.796875 C 1.710938 -4.953125 1.878906 -5.078125 2.015625 -5.171875 C 2.023438 -5.203125 2.03125 -5.21875 2.03125 -5.21875 C 2.6875 -5.757812 3.328125 -6.316406 3.953125 -6.890625 C 4.234375 -7.179688 4.578125 -7.34375 4.984375 -7.375 C 5.578125 -7.375 5.820312 -7.113281 5.71875 -6.59375 C 5.664062 -6.394531 5.609375 -6.195312 5.546875 -6 C 5.316406 -5.15625 5.304688 -4.65625 5.515625 -4.5 C 5.734375 -4.351562 6.0625 -4.351562 6.5 -4.5 C 6.945312 -4.65625 7.390625 -4.9375 7.828125 -5.34375 C 8.273438 -5.757812 8.648438 -6.140625 8.953125 -6.484375 C 9.253906 -6.828125 9.507812 -6.9375 9.71875 -6.8125 Z M 9.71875 -6.8125 "/></g></g></g><g fill="#cf7866" fill-opacity="1"><g transform="translate(312.928275, 54.569166)"><g><path d="M 0.328125 -2.375 C -0.515625 -2.375 -0.9375 -2.816406 -0.9375 -3.703125 C -0.9375 -4.773438 -0.234375 -6.679688 1.171875 -9.421875 C 1.222656 -9.535156 1.316406 -9.59375 1.453125 -9.59375 C 2.015625 -9.59375 2.296875 -9.367188 2.296875 -8.921875 C 2.296875 -8.765625 2.25 -8.566406 2.15625 -8.328125 C 2.125 -8.265625 1.65625 -7.085938 0.75 -4.796875 C 0.601562 -4.421875 0.53125 -4.144531 0.53125 -3.96875 C 0.53125 -3.769531 0.617188 -3.671875 0.796875 -3.671875 C 1.453125 -3.671875 3.164062 -5.289062 5.9375 -8.53125 C 6.289062 -8.96875 6.644531 -9.1875 7 -9.1875 C 7.5 -9.1875 7.75 -9 7.75 -8.625 C 7.75 -8.476562 7.59375 -7.9375 7.28125 -7 C 6.851562 -5.726562 6.640625 -4.992188 6.640625 -4.796875 C 6.640625 -4.503906 6.738281 -4.359375 6.9375 -4.359375 C 7.425781 -4.359375 8.859375 -5.234375 11.234375 -6.984375 C 11.367188 -7.097656 11.488281 -7.15625 11.59375 -7.15625 C 11.8125 -7.15625 11.921875 -6.96875 11.921875 -6.59375 C 11.921875 -6.488281 11.890625 -6.40625 11.828125 -6.34375 C 10.566406 -5.269531 9.492188 -4.453125 8.609375 -3.890625 C 7.804688 -3.367188 7.09375 -3.109375 6.46875 -3.109375 L 6.28125 -3.109375 C 5.363281 -3.304688 4.90625 -4.023438 4.90625 -5.265625 C 3.925781 -4.398438 3.109375 -3.703125 2.453125 -3.171875 C 1.804688 -2.640625 1.097656 -2.375 0.328125 -2.375 Z M 0.328125 -2.375 "/></g></g></g><g fill="#cf7866" fill-opacity="1"><g transform="translate(328.05464, 54.569166)"><g><path d="M 8.375 -6.46875 C 7.175781 -5.0625 6.003906 -4.019531 4.859375 -3.34375 C 3.710938 -2.675781 2.484375 -2.457031 1.171875 -2.6875 C -0.140625 -2.914062 -0.675781 -3.789062 -0.4375 -5.3125 C -0.28125 -6.082031 -0.0625 -6.832031 0.21875 -7.5625 C 0.90625 -9.269531 1.597656 -10.96875 2.296875 -12.65625 C 2.535156 -13.269531 2.785156 -13.882812 3.046875 -14.5 C 3.109375 -14.632812 3.164062 -14.765625 3.21875 -14.890625 C 3.3125 -15.117188 3.410156 -15.347656 3.515625 -15.578125 C 3.648438 -15.972656 3.492188 -16.179688 3.046875 -16.203125 C 2.785156 -16.203125 2.53125 -16.203125 2.28125 -16.203125 C 2.164062 -16.203125 2.035156 -16.203125 1.890625 -16.203125 C 1.753906 -16.179688 1.613281 -16.160156 1.46875 -16.140625 C 1.238281 -16.117188 1.007812 -16.109375 0.78125 -16.109375 C 0.550781 -16.109375 0.335938 -16.171875 0.140625 -16.296875 C 0.0859375 -16.304688 0.046875 -16.335938 0.015625 -16.390625 C -0.015625 -16.441406 -0.03125 -16.5 -0.03125 -16.5625 C -0.0078125 -16.59375 0.0195312 -16.632812 0.0625 -16.6875 C 0.101562 -16.738281 0.15625 -16.769531 0.21875 -16.78125 C 0.414062 -16.863281 0.617188 -16.921875 0.828125 -16.953125 C 1.378906 -16.984375 1.929688 -17.007812 2.484375 -17.03125 C 2.691406 -17.03125 2.878906 -17.03125 3.046875 -17.03125 C 3.398438 -17.03125 3.660156 -17.039062 3.828125 -17.0625 C 4.003906 -17.09375 4.144531 -17.1875 4.25 -17.34375 C 4.363281 -17.507812 4.492188 -17.757812 4.640625 -18.09375 C 4.710938 -18.269531 4.8125 -18.460938 4.9375 -18.671875 C 5.226562 -19.296875 5.519531 -19.9375 5.8125 -20.59375 C 5.945312 -20.882812 6.085938 -21.171875 6.234375 -21.453125 C 6.347656 -21.722656 6.53125 -21.9375 6.78125 -22.09375 C 7.019531 -22.207031 7.226562 -22.195312 7.40625 -22.0625 C 7.457031 -22.03125 7.5 -21.972656 7.53125 -21.890625 C 7.5625 -21.804688 7.578125 -21.734375 7.578125 -21.671875 C 7.578125 -21.328125 7.488281 -20.984375 7.3125 -20.640625 C 7.28125 -20.566406 7.238281 -20.484375 7.1875 -20.390625 C 7.070312 -20.066406 6.945312 -19.738281 6.8125 -19.40625 C 6.5625 -18.800781 6.316406 -18.179688 6.078125 -17.546875 C 6.015625 -17.429688 6.007812 -17.328125 6.0625 -17.234375 C 6.125 -17.148438 6.21875 -17.109375 6.34375 -17.109375 C 6.96875 -17.085938 7.585938 -17.078125 8.203125 -17.078125 C 8.515625 -17.078125 8.828125 -17.078125 9.140625 -17.078125 C 10.117188 -17.054688 10.507812 -16.921875 10.3125 -16.671875 C 10.175781 -16.515625 10.03125 -16.425781 9.875 -16.40625 C 9.71875 -16.382812 9.5625 -16.382812 9.40625 -16.40625 C 9.300781 -16.40625 9.203125 -16.40625 9.109375 -16.40625 C 8.109375 -16.34375 7.117188 -16.304688 6.140625 -16.296875 C 5.679688 -16.296875 5.375 -16.085938 5.21875 -15.671875 C 5.0625 -15.273438 4.90625 -14.882812 4.75 -14.5 C 4.53125 -13.976562 4.320312 -13.472656 4.125 -12.984375 C 3.925781 -12.515625 3.726562 -12.046875 3.53125 -11.578125 C 3.019531 -10.378906 2.53125 -9.175781 2.0625 -7.96875 C 1.769531 -7.1875 1.535156 -6.382812 1.359375 -5.5625 C 0.984375 -4.070312 1.5625 -3.5 3.09375 -3.84375 C 4.59375 -4.195312 6.164062 -5.28125 7.8125 -7.09375 C 8.519531 -7.539062 8.707031 -7.332031 8.375 -6.46875 Z M 8.375 -6.46875 "/></g></g></g><g fill="#cf7866" fill-opacity="1"><g transform="translate(339.778585, 54.569166)"><g><path d="M 10.515625 -6.984375 C 10.628906 -6.753906 10.4375 -6.40625 9.9375 -5.9375 C 9.4375 -5.46875 8.554688 -4.898438 7.296875 -4.234375 C 6.828125 -4.035156 6.484375 -3.878906 6.265625 -3.765625 C 6.054688 -3.648438 5.898438 -3.5 5.796875 -3.3125 C 5.703125 -3.132812 5.597656 -2.859375 5.484375 -2.484375 C 5.378906 -2.210938 5.25 -1.84375 5.09375 -1.375 C 4.875 -0.800781 4.660156 -0.210938 4.453125 0.390625 C 4.054688 1.628906 3.585938 2.851562 3.046875 4.0625 C 2.503906 5.269531 1.804688 6.328125 0.953125 7.234375 C 0.0976562 8.140625 -1.003906 8.738281 -2.359375 9.03125 C -3.710938 9.289062 -5.023438 9.328125 -6.296875 9.140625 C -7.566406 8.960938 -8.804688 8.613281 -10.015625 8.09375 C -10.515625 7.863281 -10.957031 7.566406 -11.34375 7.203125 C -12 6.535156 -12.050781 5.785156 -11.5 4.953125 C -11.195312 4.546875 -10.851562 4.175781 -10.46875 3.84375 C -9.675781 3.207031 -8.851562 2.628906 -8 2.109375 C -6.394531 1.140625 -4.757812 0.253906 -3.09375 -0.546875 C -1.425781 -1.347656 0.257812 -2.125 1.96875 -2.875 C 2.082031 -2.925781 2.210938 -2.984375 2.359375 -3.046875 C 2.816406 -3.265625 3.296875 -3.484375 3.796875 -3.703125 C 4.128906 -3.828125 4.351562 -4.050781 4.46875 -4.375 C 4.507812 -4.5 4.519531 -4.609375 4.5 -4.703125 C 4.476562 -4.765625 4.441406 -4.800781 4.390625 -4.8125 C 4.347656 -4.820312 4.296875 -4.804688 4.234375 -4.765625 C 4.066406 -4.671875 3.894531 -4.5625 3.71875 -4.4375 C 3.613281 -4.382812 3.503906 -4.316406 3.390625 -4.234375 C 2.773438 -3.878906 2.132812 -3.722656 1.46875 -3.765625 C 0.425781 -3.765625 -0.101562 -4.234375 -0.125 -5.171875 C -0.132812 -5.941406 0 -6.671875 0.28125 -7.359375 C 0.5625 -8.046875 0.957031 -8.691406 1.46875 -9.296875 C 1.519531 -9.359375 1.59375 -9.410156 1.6875 -9.453125 C 1.789062 -9.492188 1.894531 -9.519531 2 -9.53125 C 2.007812 -9.53125 2.03125 -9.539062 2.0625 -9.5625 C 2.257812 -9.582031 2.410156 -9.535156 2.515625 -9.421875 C 2.617188 -9.304688 2.640625 -9.15625 2.578125 -8.96875 C 2.460938 -8.71875 2.347656 -8.46875 2.234375 -8.21875 C 2.140625 -8.019531 2.039062 -7.820312 1.9375 -7.625 C 1.550781 -6.851562 1.375 -6.050781 1.40625 -5.21875 C 1.425781 -5.03125 1.503906 -4.894531 1.640625 -4.8125 C 1.773438 -4.738281 1.929688 -4.742188 2.109375 -4.828125 C 2.640625 -5.035156 3.101562 -5.335938 3.5 -5.734375 C 4.5625 -6.703125 5.4375 -7.8125 6.125 -9.0625 C 6.21875 -9.25 6.328125 -9.40625 6.453125 -9.53125 C 6.585938 -9.65625 6.765625 -9.722656 6.984375 -9.734375 C 7.253906 -9.765625 7.460938 -9.707031 7.609375 -9.5625 C 7.765625 -9.414062 7.8125 -9.21875 7.75 -8.96875 C 7.5 -8.164062 7.234375 -7.375 6.953125 -6.59375 C 6.929688 -6.53125 6.910156 -6.472656 6.890625 -6.421875 C 6.816406 -6.242188 6.75 -6.054688 6.6875 -5.859375 C 6.625 -5.660156 6.59375 -5.488281 6.59375 -5.34375 C 6.59375 -5.195312 6.65625 -5.125 6.78125 -5.125 C 7.269531 -5.21875 7.984375 -5.609375 8.921875 -6.296875 C 9.867188 -6.984375 10.398438 -7.210938 10.515625 -6.984375 Z M 3.5 -1.609375 C 3.5 -1.648438 3.507812 -1.691406 3.53125 -1.734375 C 3.59375 -1.828125 3.625 -1.929688 3.625 -2.046875 C 3.632812 -2.160156 3.601562 -2.28125 3.53125 -2.40625 C 3.46875 -2.40625 3.421875 -2.40625 3.390625 -2.40625 C 3.265625 -2.382812 3.148438 -2.351562 3.046875 -2.3125 C 2.859375 -2.238281 2.664062 -2.148438 2.46875 -2.046875 C 0.894531 -1.328125 -0.675781 -0.582031 -2.25 0.1875 C -3.820312 0.957031 -5.363281 1.773438 -6.875 2.640625 C -7.789062 3.171875 -8.65625 3.785156 -9.46875 4.484375 C -10.132812 5.078125 -10.453125 5.59375 -10.421875 6.03125 C -10.398438 6.476562 -10.007812 6.878906 -9.25 7.234375 C -7.550781 8.117188 -5.71875 8.476562 -3.75 8.3125 C -2.40625 8.1875 -1.316406 7.6875 -0.484375 6.8125 C 0.347656 5.9375 1.03125 4.882812 1.5625 3.65625 C 2.09375 2.4375 2.554688 1.222656 2.953125 0.015625 C 3.117188 -0.554688 3.300781 -1.097656 3.5 -1.609375 Z M 3.5 -1.609375 "/></g></g></g></g></g></g></svg>